<svg width="20" height="20" viewBox="0 0 20 20" fill="none" xmlns="http://www.w3.org/2000/svg">
<path d="M8.16201 11.392H11.888L12.802 13.717C12.8393 13.8123 12.8947 13.8833 12.968 13.93C13.0413 13.9767 13.1277 14 13.227 14C13.387 14 13.5123 13.9377 13.603 13.813C13.693 13.6877 13.7093 13.547 13.652 13.391L10.417 5.18601C10.393 5.12601 10.356 5.08001 10.306 5.04801C10.256 5.01601 10.2007 5.00001 10.14 5.00001H9.89701C9.83701 5.00001 9.78201 5.01601 9.73201 5.04801C9.68201 5.08001 9.64468 5.12601 9.62001 5.18601L6.40501 13.404C6.34701 13.5473 6.36334 13.6827 6.45401 13.81C6.54468 13.9367 6.67201 14 6.83601 14C6.93868 14 7.02334 13.9733 7.09001 13.92C7.15734 13.8667 7.20968 13.797 7.24701 13.711L8.16201 11.392ZM8.45801 10.592L9.95001 6.57301H10.05L11.58 10.593L8.45801 10.592ZM7.07301 17H4.61601C4.16801 17 3.78668 16.8427 3.47201 16.528C3.15734 16.2133 3.00001 15.8323 3.00001 15.385V12.927L1.21001 11.131C1.05201 10.969 0.935676 10.7897 0.861009 10.593C0.786342 10.3963 0.749342 10.1987 0.750009 10C0.750676 9.80134 0.788009 9.60367 0.862009 9.40701C0.936009 9.21034 1.05168 9.03101 1.20901 8.86901L3.00001 7.07301V4.61601C3.00001 4.16801 3.15734 3.78668 3.47201 3.47201C3.78668 3.15734 4.16801 3.00001 4.61601 3.00001H7.07301L8.86901 1.21001C9.03101 1.05201 9.21034 0.935676 9.40701 0.861009C9.60367 0.786342 9.80134 0.749342 10 0.750009C10.1987 0.750676 10.3963 0.788009 10.593 0.862009C10.7897 0.936009 10.969 1.05168 11.131 1.20901L12.927 3.00001H15.385C15.8317 3.00001 16.2127 3.15734 16.528 3.47201C16.8427 3.78668 17 4.16801 17 4.61601V7.07301L18.79 8.86901C18.948 9.03101 19.0643 9.21034 19.139 9.40701C19.2137 9.60367 19.2507 9.80134 19.25 10C19.2493 10.1987 19.2123 10.3963 19.139 10.593C19.0657 10.7897 18.9497 10.969 18.791 11.131L17 12.927V15.385C17 15.8317 16.8427 16.2127 16.528 16.528C16.2133 16.8427 15.8323 17 15.385 17H12.927L11.131 18.79C10.969 18.948 10.7897 19.0643 10.593 19.139C10.3963 19.2137 10.1987 19.2507 10 19.25C9.80134 19.2493 9.60367 19.2123 9.40701 19.139C9.21034 19.0657 9.03101 18.9497 8.86901 18.791L7.07301 17ZM7.50001 16L9.55801 18.058C9.67334 18.1733 9.82067 18.231 10 18.231C10.1793 18.231 10.3267 18.1733 10.442 18.058L12.5 16H15.385C15.5643 16 15.7117 15.9423 15.827 15.827C15.9423 15.7117 16 15.5643 16 15.385V12.5L18.058 10.442C18.1733 10.3267 18.231 10.1793 18.231 10C18.231 9.82067 18.1733 9.67334 18.058 9.55801L16 7.50001V4.61601C16 4.43601 15.9423 4.28834 15.827 4.17301C15.7117 4.05768 15.5643 4.00001 15.385 4.00001H12.5L10.442 1.94201C10.3273 1.82734 10.18 1.77001 10 1.77001C9.82001 1.77001 9.67268 1.82768 9.55801 1.94301L7.50001 4.00001H4.61601C4.43601 4.00001 4.28834 4.05768 4.17301 4.17301C4.05768 4.28834 4.00001 4.43601 4.00001 4.61601V7.50001L1.94201 9.55801C1.82668 9.67334 1.76901 9.82067 1.76901 10C1.76901 10.1793 1.82668 10.3267 1.94201 10.442L4.00001 12.5V15.385C4.00001 15.5643 4.05768 15.7117 4.17301 15.827C4.28834 15.9423 4.43601 16 4.61601 16H7.50001Z" fill="#3F83F8"/>
</svg>
