<svg width="24" height="16" viewBox="0 0 24 16" fill="none" xmlns="http://www.w3.org/2000/svg">
<path d="M11.9992 4.43831C11.2946 4.43831 10.6059 4.64725 10.02 5.0387C9.43417 5.43015 8.97756 5.98654 8.70792 6.6375C8.43828 7.28847 8.36773 8.00477 8.50519 8.69582C8.64265 9.38688 8.98195 10.0217 9.48017 10.5199C9.9784 11.0181 10.6132 11.3574 11.3042 11.4949C11.9953 11.6323 12.7116 11.5618 13.3626 11.2921C14.0135 11.0225 14.5699 10.5659 14.9614 9.98003C15.3528 9.39418 15.5617 8.70541 15.5617 8.00081C15.5617 7.05598 15.1864 6.14984 14.5183 5.48175C13.8502 4.81365 12.9441 4.43831 11.9992 4.43831ZM11.9992 10.4383C11.5171 10.4383 11.0459 10.2954 10.645 10.0275C10.2442 9.75968 9.93177 9.379 9.74729 8.9336C9.5628 8.48821 9.51453 7.99811 9.60858 7.52528C9.70263 7.05245 9.93478 6.61813 10.2757 6.27724C10.6166 5.93635 11.0509 5.7042 11.5237 5.61015C11.9965 5.5161 12.4866 5.56437 12.932 5.74886C13.3774 5.93335 13.7581 6.24577 14.0259 6.64661C14.2938 7.04746 14.4367 7.51872 14.4367 8.00081C14.4367 8.64728 14.1799 9.26727 13.7228 9.72439C13.2657 10.1815 12.6457 10.4383 11.9992 10.4383ZM19.3117 8.00081C19.3141 9.79992 18.6509 11.5363 17.4499 12.8758C17.3494 12.983 17.2109 13.0467 17.0641 13.0531C16.9173 13.0596 16.7738 13.0083 16.6643 12.9103C16.5548 12.8123 16.488 12.6754 16.4782 12.5288C16.4684 12.3822 16.5163 12.2375 16.6117 12.1258C17.6278 10.9921 18.1896 9.52321 18.1896 8.00081C18.1896 6.47842 17.6278 5.00957 16.6117 3.87581C16.5605 3.82112 16.5207 3.75673 16.4946 3.68644C16.4686 3.61614 16.4569 3.54135 16.4602 3.46646C16.4635 3.39158 16.4817 3.3181 16.5138 3.25036C16.5459 3.18262 16.5912 3.12197 16.6471 3.07198C16.7029 3.022 16.7682 2.98368 16.8391 2.95928C16.91 2.93489 16.985 2.9249 17.0598 2.92992C17.1346 2.93493 17.2076 2.95485 17.2746 2.98849C17.3416 3.02213 17.4012 3.06882 17.4499 3.12581C18.6509 4.46531 19.3141 6.20171 19.3117 8.00081ZM6.29737 5.59238C5.84036 6.67254 5.70012 7.86044 5.89302 9.01734C6.08592 10.1742 6.60399 11.2524 7.38674 12.1258C7.48616 12.237 7.53737 12.3831 7.5291 12.532C7.52084 12.6809 7.45379 12.8204 7.34268 12.9199C7.23152 13.0193 7.08543 13.0705 6.93653 13.0622C6.78762 13.054 6.64809 12.9869 6.54862 12.8758C5.34813 11.5358 4.68429 9.79993 4.68429 8.00081C4.68429 6.20169 5.34813 4.46583 6.54862 3.12581C6.5973 3.06882 6.65689 3.02213 6.72388 2.98849C6.79086 2.95485 6.8639 2.93493 6.93869 2.92992C7.01348 2.9249 7.08852 2.93489 7.1594 2.95928C7.23027 2.98368 7.29556 3.022 7.35142 3.07198C7.40728 3.12197 7.45258 3.18262 7.48467 3.25036C7.51676 3.3181 7.53499 3.39158 7.53828 3.46646C7.54157 3.54135 7.52986 3.61614 7.50383 3.68644C7.47781 3.75673 7.438 3.82112 7.38674 3.87581C6.93173 4.38423 6.56367 4.9642 6.29737 5.59238ZM23.0617 8.00081C23.0648 10.8961 21.9298 13.6766 19.9014 15.7427C19.797 15.8494 19.6545 15.9102 19.5052 15.9117C19.3559 15.9133 19.2122 15.8556 19.1055 15.7511C18.9988 15.6467 18.938 15.5042 18.9364 15.3549C18.9348 15.2056 18.9926 15.0619 19.0971 14.9552C20.9194 13.0991 21.9404 10.6019 21.9404 8.00081C21.9404 5.39968 20.9194 2.90248 19.0971 1.04644C19.0453 0.993622 19.0045 0.931139 18.977 0.862555C18.9494 0.793972 18.9356 0.720632 18.9364 0.646722C18.938 0.497455 18.9988 0.35493 19.1055 0.250501C19.2122 0.146072 19.3559 0.0882931 19.5052 0.0898754C19.5791 0.0906589 19.6521 0.105992 19.7201 0.135C19.7881 0.164008 19.8497 0.206122 19.9014 0.258938C21.9298 2.32501 23.0648 5.10551 23.0617 8.00081ZM4.90143 14.9552C4.95314 15.008 4.99394 15.0705 5.0215 15.1391C5.04906 15.2077 5.06284 15.281 5.06205 15.3549C5.06127 15.4288 5.04594 15.5018 5.01693 15.5698C4.98792 15.6378 4.94581 15.6994 4.89299 15.7511C4.84018 15.8028 4.77769 15.8436 4.70911 15.8712C4.64053 15.8988 4.56718 15.9125 4.49328 15.9117C4.41937 15.911 4.34633 15.8956 4.27835 15.8666C4.21037 15.8376 4.14876 15.7955 4.09705 15.7427C2.06945 13.6759 0.933594 10.8961 0.933594 8.00081C0.933594 5.1055 2.06945 2.32574 4.09705 0.258938C4.20148 0.152271 4.34401 0.0914578 4.49328 0.0898754C4.64254 0.0882931 4.78632 0.146072 4.89299 0.250501C4.99966 0.35493 5.06047 0.497455 5.06205 0.646722C5.06364 0.795989 5.00586 0.939771 4.90143 1.04644C3.07906 2.90248 2.05805 5.39968 2.05805 8.00081C2.05805 10.6019 3.07906 13.0991 4.90143 14.9552Z" fill="#3F83F8"/>
</svg>
