<svg width="15" height="18" viewBox="0 0 15 18" fill="none" xmlns="http://www.w3.org/2000/svg">
<path d="M7.4 2.6C6.12696 2.6 4.90606 3.10571 4.00589 4.00589C3.10571 4.90606 2.6 6.12696 2.6 7.4V13.8M7.4 2.6C8.67304 2.6 9.89394 3.10571 10.7941 4.00589C11.6943 4.90606 12.2 6.12696 12.2 7.4V13.8M7.4 2.6C7.61217 2.6 7.81566 2.51571 7.96569 2.36569C8.11571 2.21566 8.2 2.01217 8.2 1.8C8.2 1.58783 8.11571 1.38434 7.96569 1.23431C7.81566 1.08429 7.61217 1 7.4 1C7.18783 1 6.98434 1.08429 6.83431 1.23431C6.68429 1.38434 6.6 1.58783 6.6 1.8C6.6 2.01217 6.68429 2.21566 6.83431 2.36569C6.98434 2.51571 7.18783 2.6 7.4 2.6ZM13.8 13.8H1M9 15.4C9 15.8243 8.83143 16.2313 8.53137 16.5314C8.23131 16.8314 7.82435 17 7.4 17C6.97565 17 6.56869 16.8314 6.26863 16.5314C5.96857 16.2313 5.8 15.8243 5.8 15.4" stroke="#3F83F8" stroke-width="1.4" stroke-linecap="round" stroke-linejoin="round"/>
</svg>
