<svg width="22" height="9" viewBox="0 0 22 9" fill="none" xmlns="http://www.w3.org/2000/svg">
<path d="M3.16706 2.46818C3.25529 2.19663 3.63945 2.19663 3.72768 2.46818L4.04292 3.43839C4.08238 3.55983 4.19555 3.64205 4.32323 3.64205H5.34338C5.62889 3.64205 5.74761 4.00741 5.51662 4.17523L4.6913 4.77486C4.588 4.84991 4.54478 4.98295 4.58424 5.10438L4.89948 6.0746C4.98771 6.34614 4.67691 6.57195 4.44592 6.40412L3.62061 5.8045C3.51731 5.72945 3.37743 5.72945 3.27413 5.8045L2.44881 6.40412C2.21782 6.57195 1.90703 6.34614 1.99526 6.0746L2.3105 5.10438C2.34996 4.98295 2.30673 4.84991 2.20343 4.77486L1.37812 4.17523C1.14713 4.00741 1.26584 3.64205 1.55136 3.64205H2.5715C2.69919 3.64205 2.81236 3.55983 2.85182 3.43839L3.16706 2.46818Z" stroke="#1F2A37" stroke-width="0.736842"/>
<path d="M10.3939 1.47053C10.5239 1.05827 11.1073 1.05827 11.2372 1.47053L11.6891 2.90411C11.7476 3.08953 11.9203 3.21501 12.1147 3.21329L13.6177 3.20005C14.0499 3.19624 14.2302 3.7511 13.8783 4.00208L12.6545 4.87483C12.4962 4.98771 12.4303 5.19074 12.492 5.3751L12.969 6.80049C13.1062 7.2104 12.6342 7.55332 12.2868 7.29617L11.0786 6.40199C10.9223 6.28634 10.7088 6.28634 10.5526 6.40199L9.34437 7.29617C8.99692 7.55332 8.52493 7.2104 8.66212 6.80049L9.13919 5.3751C9.20089 5.19074 9.13492 4.98771 8.97664 4.87483L7.75286 4.00208C7.40093 3.7511 7.58122 3.19624 8.01346 3.20005L9.51651 3.21329C9.71091 3.21501 9.88362 3.08953 9.94206 2.90411L10.3939 1.47053Z" stroke="#1F2A37" stroke-width="0.736842"/>
<path d="M17.9034 2.46818C17.9916 2.19663 18.3758 2.19663 18.464 2.46818L18.7792 3.43839C18.8187 3.55983 18.9319 3.64205 19.0596 3.64205H20.0797C20.3652 3.64205 20.4839 4.00741 20.2529 4.17523L19.4276 4.77486C19.3243 4.84991 19.2811 4.98295 19.3206 5.10438L19.6358 6.0746C19.724 6.34614 19.4132 6.57195 19.1823 6.40412L18.3569 5.8045C18.2536 5.72945 18.1138 5.72945 18.0105 5.8045L17.1851 6.40412C16.9542 6.57195 16.6434 6.34614 16.7316 6.0746L17.0468 5.10438C17.0863 4.98295 17.0431 4.84991 16.9398 4.77486L16.1144 4.17523C15.8835 4.00741 16.0022 3.64205 16.2877 3.64205H17.3078C17.4355 3.64205 17.5487 3.55983 17.5881 3.43839L17.9034 2.46818Z" stroke="#1F2A37" stroke-width="0.736842"/>
</svg>
