<svg width="16" height="17" viewBox="0 0 16 17" fill="none" xmlns="http://www.w3.org/2000/svg">
<path d="M8.06732 12.8667L8.00065 12.9333L7.92732 12.8667C4.76065 9.99333 2.66732 8.09333 2.66732 6.16667C2.66732 4.83333 3.66732 3.83333 5.00065 3.83333C6.02732 3.83333 7.02732 4.5 7.38065 5.40667H8.62065C8.97398 4.5 9.97398 3.83333 11.0007 3.83333C12.334 3.83333 13.334 4.83333 13.334 6.16667C13.334 8.09333 11.2407 9.99333 8.06732 12.8667ZM11.0007 2.5C9.84065 2.5 8.72732 3.04 8.00065 3.88667C7.27398 3.04 6.16065 2.5 5.00065 2.5C2.94732 2.5 1.33398 4.10667 1.33398 6.16667C1.33398 8.68 3.60065 10.74 7.03398 13.8533L8.00065 14.7333L8.96732 13.8533C12.4007 10.74 14.6673 8.68 14.6673 6.16667C14.6673 4.10667 13.054 2.5 11.0007 2.5Z" fill="#111928"/>
</svg>
