<svg width="16" height="17" viewBox="0 0 16 17" fill="none" xmlns="http://www.w3.org/2000/svg">
<path d="M1.16626 9.43396C1.02181 9.33396 0.935812 9.19796 0.908256 9.02596C0.880701 8.85396 0.911145 8.68996 0.999589 8.53396L3.03292 5.26729C3.27737 4.8784 3.6247 4.67018 4.07492 4.64262C4.52515 4.61507 4.89448 4.77329 5.18292 5.11729L5.99959 6.06729L7.58292 3.50062C7.83848 3.0784 8.20803 2.86462 8.69159 2.85929C9.17515 2.85396 9.55003 3.05662 9.81626 3.46729L10.6663 4.73396L12.5329 1.76729C12.6329 1.60062 12.7803 1.49796 12.9749 1.45929C13.1696 1.42062 13.3445 1.46218 13.4996 1.58396C13.644 1.68396 13.7303 1.82018 13.7583 1.99262C13.7863 2.16507 13.7556 2.32885 13.6663 2.48396L11.7996 5.45062C11.544 5.86173 11.1747 6.06729 10.6916 6.06729C10.2085 6.06729 9.83337 5.86729 9.56626 5.46729L8.71626 4.20062L7.13292 6.76729C6.89959 7.15618 6.55803 7.36729 6.10826 7.40062C5.65848 7.43396 5.28892 7.2784 4.99959 6.93396L4.16626 5.96729L2.13292 9.25062C2.03292 9.41729 1.88559 9.52018 1.69092 9.55929C1.49626 9.5984 1.32137 9.55662 1.16626 9.43396ZM9.66626 12.5006C10.1329 12.5006 10.5274 12.3395 10.8496 12.0173C11.1718 11.6951 11.3329 11.3006 11.3329 10.834C11.3329 10.3673 11.1718 9.97285 10.8496 9.65062C10.5274 9.3284 10.1329 9.16729 9.66626 9.16729C9.19959 9.16729 8.80515 9.3284 8.48292 9.65062C8.1607 9.97285 7.99959 10.3673 7.99959 10.834C7.99959 11.3006 8.1607 11.6951 8.48292 12.0173C8.80515 12.3395 9.19959 12.5006 9.66626 12.5006ZM9.66626 13.834C8.83292 13.834 8.12448 13.5424 7.54092 12.9593C6.95737 12.3762 6.66581 11.6677 6.66626 10.834C6.6667 10.0002 6.95848 9.29196 7.54159 8.70929C8.1247 8.12662 8.83292 7.83485 9.66626 7.83396C10.4996 7.83307 11.208 8.12485 11.7916 8.70929C12.3751 9.29374 12.6667 10.002 12.6663 10.834C12.6663 11.1228 12.6274 11.4035 12.5496 11.676C12.4718 11.9484 12.3551 12.2011 12.1996 12.434L13.5329 13.7673C13.6551 13.8895 13.7163 14.0451 13.7163 14.234C13.7163 14.4228 13.6551 14.5784 13.5329 14.7006C13.4107 14.8228 13.2551 14.884 13.0663 14.884C12.8774 14.884 12.7218 14.8228 12.5996 14.7006L11.2663 13.3673C11.0329 13.5228 10.7803 13.6395 10.5083 13.7173C10.2363 13.7951 9.95559 13.834 9.66626 13.834Z" fill="#111928"/>
</svg>
