<svg width="18" height="16" viewBox="0 0 18 16" fill="none" xmlns="http://www.w3.org/2000/svg">
<path d="M9 1.11111C8.52261 1.11111 8.06477 1.29841 7.72721 1.63181C7.38964 1.9652 7.2 2.41739 7.2 2.88888C7.2 3.36038 7.38964 3.81256 7.72721 4.14596C8.06477 4.47936 8.52261 4.66666 9 4.66666C9.47739 4.66666 9.93523 4.47936 10.2728 4.14596C10.6104 3.81256 10.8 3.36038 10.8 2.88888C10.8 2.41739 10.6104 1.9652 10.2728 1.63181C9.93523 1.29841 9.47739 1.11111 9 1.11111ZM6.075 2.88888C6.075 2.1227 6.38317 1.38791 6.93171 0.846135C7.48026 0.304364 8.22424 0 9 0C9.77576 0 10.5197 0.304364 11.0683 0.846135C11.6168 1.38791 11.925 2.1227 11.925 2.88888C11.925 3.65506 11.6168 4.38986 11.0683 4.93163C10.5197 5.4734 9.77576 5.77777 9 5.77777C8.22424 5.77777 7.48026 5.4734 6.93171 4.93163C6.38317 4.38986 6.075 3.65506 6.075 2.88888ZM2.475 2.88888C2.11696 2.88888 1.77358 3.02936 1.52041 3.27941C1.26723 3.52946 1.125 3.86859 1.125 4.22222C1.125 4.57584 1.26723 4.91498 1.52041 5.16502C1.77358 5.41507 2.11696 5.55555 2.475 5.55555C2.83304 5.55555 3.17642 5.41507 3.42959 5.16502C3.68277 4.91498 3.825 4.57584 3.825 4.22222C3.825 3.86859 3.68277 3.52946 3.42959 3.27941C3.17642 3.02936 2.83304 2.88888 2.475 2.88888ZM0 4.22222C0 3.57391 0.260758 2.95216 0.724911 2.49373C1.18906 2.03531 1.81859 1.77777 2.475 1.77777C3.13141 1.77777 3.76094 2.03531 4.22509 2.49373C4.68924 2.95216 4.95 3.57391 4.95 4.22222C4.95 4.87052 4.68924 5.49227 4.22509 5.9507C3.76094 6.40912 3.13141 6.66666 2.475 6.66666C1.81859 6.66666 1.18906 6.40912 0.724911 5.9507C0.260758 5.49227 0 4.87052 0 4.22222ZM14.175 4.22222C14.175 3.86859 14.3172 3.52946 14.5704 3.27941C14.8236 3.02936 15.167 2.88888 15.525 2.88888C15.883 2.88888 16.2264 3.02936 16.4796 3.27941C16.7328 3.52946 16.875 3.86859 16.875 4.22222C16.875 4.57584 16.7328 4.91498 16.4796 5.16502C16.2264 5.41507 15.883 5.55555 15.525 5.55555C15.167 5.55555 14.8236 5.41507 14.5704 5.16502C14.3172 4.91498 14.175 4.57584 14.175 4.22222ZM15.525 1.77777C14.8686 1.77777 14.2391 2.03531 13.7749 2.49373C13.3108 2.95216 13.05 3.57391 13.05 4.22222C13.05 4.87052 13.3108 5.49227 13.7749 5.9507C14.2391 6.40912 14.8686 6.66666 15.525 6.66666C16.1814 6.66666 16.8109 6.40912 17.2751 5.9507C17.7392 5.49227 18 4.87052 18 4.22222C18 3.57391 17.7392 2.95216 17.2751 2.49373C16.8109 2.03531 16.1814 1.77777 15.525 1.77777ZM4.95 8.55554C4.95 8.17245 5.10408 7.80505 5.37836 7.53417C5.65263 7.26328 6.02462 7.1111 6.4125 7.1111H11.5875C11.9754 7.1111 12.3474 7.26328 12.6216 7.53417C12.8959 7.80505 13.05 8.17245 13.05 8.55554V12C13.05 13.0608 12.6233 14.0783 11.8638 14.8284C11.1043 15.5785 10.0741 16 9 16C7.92587 16 6.89574 15.5785 6.13622 14.8284C5.3767 14.0783 4.95 13.0608 4.95 12V8.55554ZM6.4125 8.22221C6.32299 8.22221 6.23714 8.25733 6.17385 8.31984C6.11056 8.38235 6.075 8.46714 6.075 8.55554V12C6.075 12.7662 6.38317 13.501 6.93171 14.0427C7.48026 14.5845 8.22424 14.8889 9 14.8889C9.77576 14.8889 10.5197 14.5845 11.0683 14.0427C11.6168 13.501 11.925 12.7662 11.925 12V8.55554C11.925 8.46714 11.8894 8.38235 11.8261 8.31984C11.7629 8.25733 11.677 8.22221 11.5875 8.22221H6.4125ZM4.1184 7.99554C4.0731 8.1751 4.0503 8.36176 4.05 8.55554V9.16354L1.377 9.87109C1.29062 9.89401 1.21699 9.94985 1.17227 10.0264C1.12755 10.1029 1.1154 10.1938 1.1385 10.2791L1.8081 12.7475C1.99057 13.4205 2.41313 14.0057 2.99793 14.3953C3.58273 14.7848 4.29038 14.9526 4.9905 14.8675C5.24691 15.2172 5.54909 15.5318 5.88915 15.8031C5.82105 15.8253 5.75205 15.8455 5.68215 15.8635C5.16841 15.9996 4.63257 16.0343 4.10522 15.9659C3.57787 15.8974 3.06935 15.7269 2.60869 15.4643C2.14803 15.2017 1.74426 14.8521 1.42042 14.4353C1.09659 14.0186 0.859047 13.5429 0.72135 13.0355L0.0512999 10.5671C0.00162693 10.3839 -0.0110162 10.1928 0.0140923 10.0047C0.0392009 9.81662 0.101569 9.63529 0.197637 9.47103C0.293704 9.30677 0.421589 9.16281 0.573989 9.04737C0.726389 8.93193 0.90032 8.84726 1.08585 8.79821L4.1184 7.99554ZM12.1104 15.8031C12.1788 15.8253 12.2479 15.8455 12.3178 15.8635C12.8316 15.9995 13.3674 16.0342 13.8947 15.9656C14.4221 15.8971 14.9305 15.7266 15.3912 15.464C15.8518 15.2013 16.2555 14.8517 16.5793 14.4349C16.9031 14.0182 17.1405 13.5425 17.2782 13.0351L17.9478 10.5666C18.0481 10.1966 17.9956 9.80243 17.8016 9.47071C17.6077 9.13899 17.2883 8.89693 16.9137 8.79776L13.8816 7.9951C13.9269 8.17495 13.9497 8.36162 13.95 8.5551V9.16399L16.6225 9.87065C16.6654 9.88199 16.7056 9.90157 16.7408 9.92827C16.776 9.95497 16.8055 9.98826 16.8277 10.0262C16.8498 10.0642 16.8642 10.1061 16.8699 10.1496C16.8756 10.1931 16.8726 10.2372 16.861 10.2795L16.1914 12.7475C16.009 13.4204 15.5865 14.0055 15.0018 14.3951C14.4171 14.7847 13.7095 14.9524 13.0095 14.8675C12.7531 15.2172 12.4505 15.5318 12.1104 15.8031Z" fill="#6B7280"/>
</svg>
