<svg width="18" height="17" viewBox="0 0 18 17" fill="none" xmlns="http://www.w3.org/2000/svg">
<path d="M9 16.6524L8.242 15.9674C6.61 14.4768 5.26 13.2008 4.192 12.1394C3.12467 11.0774 2.282 10.1408 1.664 9.32944C1.046 8.5181 0.614003 7.78477 0.368003 7.12944C0.122003 6.4741 -0.000663964 5.81377 2.7027e-06 5.14844C2.7027e-06 3.87644 0.432003 2.80844 1.296 1.94444C2.16 1.08044 3.228 0.648437 4.5 0.648438C5.38 0.648438 6.205 0.873437 6.975 1.32344C7.745 1.77344 8.42 2.4281 9 3.28744C9.58 2.4281 10.255 1.77344 11.025 1.32344C11.795 0.873437 12.62 0.648438 13.5 0.648438C14.772 0.648438 15.84 1.08044 16.704 1.94444C17.568 2.80844 18 3.87644 18 5.14844C18 5.81244 17.8773 6.47244 17.632 7.12844C17.386 7.78577 16.954 8.51977 16.336 9.33044C15.718 10.1411 14.8783 11.0774 13.817 12.1394C12.7557 13.2008 11.4023 14.4768 9.757 15.9674L9 16.6524ZM9 15.2984C10.6 13.8518 11.9167 12.6131 12.95 11.5824C13.9833 10.5518 14.8 9.65677 15.4 8.89744C16 8.1381 16.4167 7.46644 16.65 6.88244C16.8833 6.2971 17 5.7191 17 5.14844C17 4.14844 16.6667 3.3151 16 2.64844C15.3333 1.98177 14.5 1.64844 13.5 1.64844C12.704 1.64844 11.9693 1.87577 11.296 2.33044C10.6227 2.7851 10.0207 3.46944 9.49 4.38344H8.512C7.96734 3.45677 7.36167 2.7691 6.695 2.32044C6.02834 1.87244 5.297 1.64844 4.501 1.64844C3.51434 1.64844 2.68434 1.98177 2.011 2.64844C1.33767 3.3151 1.00067 4.14844 1 5.14844C1 5.7191 1.11667 6.2971 1.35 6.88244C1.58334 7.46777 2 8.13944 2.6 8.89744C3.2 9.65544 4.01667 10.5471 5.05 11.5724C6.08334 12.5978 7.4 13.8398 9 15.2984Z" fill="#6B7280"/>
</svg>
