<svg width="9" height="16" viewBox="0 0 9 16" fill="none" xmlns="http://www.w3.org/2000/svg">
<path d="M2.13151 4.21771C1.97456 5.4276 2.94498 6.55055 2.94498 6.55055C2.94498 6.55055 4.17035 5.71202 4.3273 4.50213C4.48425 3.29149 3.51383 2.16855 3.51383 2.16855C3.51383 2.16855 2.28919 3.00855 2.13151 4.21771ZM0.979826 8.28434C1.49267 9.39181 2.9133 9.82655 2.9133 9.82655C2.9133 9.82655 3.50277 8.4656 2.98993 7.35813C2.47709 6.25065 1.05646 5.81518 1.05646 5.81518C1.05646 5.81518 0.466984 7.17686 0.979826 8.28434ZM1.58477 12.1785C2.5633 12.9102 4.02077 12.6199 4.02077 12.6199C4.02077 12.6199 3.89109 11.1425 2.91256 10.4109C1.93404 9.67918 0.476562 9.96949 0.476562 9.96949C0.476562 9.96949 0.606247 11.4469 1.58477 12.1785ZM4.24404 15.3455C5.35298 15.8598 6.71909 15.2755 6.71909 15.2755C6.71909 15.2755 6.28656 13.8571 5.17762 13.342C4.06867 12.8277 2.70256 13.4128 2.70256 13.4128C2.70256 13.4128 3.13509 14.8312 4.24404 15.3455ZM5.47309 1.53339C4.58151 2.36823 4.6154 3.85002 4.6154 3.85002C4.6154 3.85002 6.09646 3.97971 6.98804 3.14486C7.87962 2.31002 7.84572 0.827495 7.84572 0.827495C7.84572 0.827495 6.36467 0.698547 5.47309 1.53339Z" stroke="#1F2A37" stroke-width="0.884211" stroke-linecap="round" stroke-linejoin="round"/>
</svg>
