<svg width="16" height="16" viewBox="0 0 16 16" fill="none" xmlns="http://www.w3.org/2000/svg">
<path d="M4.117 12.539C4.335 12.539 4.51767 12.465 4.665 12.317C4.81167 12.1697 4.885 11.9867 4.885 11.768C4.885 11.5493 4.811 11.3667 4.663 11.22C4.515 11.0733 4.332 11 4.114 11C3.896 11 3.71333 11.074 3.566 11.222C3.41867 11.37 3.34533 11.553 3.346 11.771C3.34667 11.989 3.42067 12.1713 3.568 12.318C3.71533 12.4647 3.89833 12.539 4.117 12.539ZM4.117 8.769C4.335 8.769 4.51767 8.69533 4.665 8.548C4.81167 8.4 4.885 8.21667 4.885 7.998C4.885 7.77933 4.811 7.597 4.663 7.451C4.515 7.305 4.332 7.23167 4.114 7.231C3.896 7.23033 3.71333 7.304 3.566 7.452C3.41867 7.6 3.34533 7.78333 3.346 8.002C3.34667 8.22067 3.42067 8.403 3.568 8.549C3.71533 8.695 3.89833 8.76833 4.117 8.769ZM4.117 5C4.335 5 4.51767 4.92633 4.665 4.779C4.81167 4.631 4.885 4.44767 4.885 4.229C4.885 4.01033 4.811 3.828 4.663 3.682C4.515 3.536 4.332 3.46267 4.114 3.462C3.896 3.46133 3.71333 3.535 3.566 3.683C3.41933 3.831 3.346 4.014 3.346 4.232C3.346 4.45 3.42 4.63267 3.568 4.78C3.716 4.92733 3.899 5.00067 4.117 5ZM7.192 12.27H12.577V11.27H7.192V12.27ZM7.192 8.5H12.577V7.5H7.192V8.5ZM7.192 4.73H12.577V3.73H7.192V4.73ZM1.616 16C1.15533 16 0.771 15.846 0.463 15.538C0.155 15.23 0.000666667 14.8453 0 14.384V1.616C0 1.15533 0.154333 0.771 0.463 0.463C0.771667 0.155 1.156 0.000666667 1.616 0H14.385C14.845 0 15.2293 0.154333 15.538 0.463C15.8467 0.771667 16.0007 1.156 16 1.616V14.385C16 14.845 15.846 15.2293 15.538 15.538C15.23 15.8467 14.8453 16.0007 14.384 16H1.616ZM1.616 15H14.385C14.5383 15 14.6793 14.936 14.808 14.808C14.9367 14.68 15.0007 14.5387 15 14.384V1.616C15 1.462 14.936 1.32067 14.808 1.192C14.68 1.06333 14.5387 0.999333 14.384 1H1.616C1.462 1 1.32067 1.064 1.192 1.192C1.06333 1.32 0.999333 1.46133 1 1.616V14.385C1 14.5383 1.064 14.6793 1.192 14.808C1.32 14.9367 1.461 15.0007 1.615 15" fill="#6B7280"/>
</svg>
