<svg width="14" height="19" viewBox="0 0 14 19" fill="none" xmlns="http://www.w3.org/2000/svg">
<path d="M4.925 10.277L5.704 7.697L3.654 6.192H6.216L7 3.585L7.785 6.192H10.346L8.29 7.696L9.07 10.277L7 8.675L4.925 10.277ZM2 18.462V11.872C1.36667 11.2487 0.875 10.5187 0.525 9.682C0.175 8.84733 0 7.95333 0 7C0 5.04867 0.678666 3.39433 2.036 2.037C3.39333 0.679667 5.048 0.000667157 7 4.90677e-07C8.952 -0.000666176 10.6067 0.678 11.964 2.036C13.3213 3.394 14 5.04867 14 7C14 7.95267 13.825 8.847 13.475 9.683C13.125 10.519 12.6333 11.248 12 11.87V18.46L7 16.96L2 18.462ZM7 13C8.66667 13 10.0833 12.4167 11.25 11.25C12.4167 10.0833 13 8.66667 13 7C13 5.33333 12.4167 3.91667 11.25 2.75C10.0833 1.58333 8.66667 1 7 1C5.33333 1 3.91667 1.58333 2.75 2.75C1.58333 3.91667 1 5.33333 1 7C1 8.66667 1.58333 10.0833 2.75 11.25C3.91667 12.4167 5.33333 13 7 13ZM3 17.044L7 15.923L11 17.044V12.714C10.4427 13.124 9.823 13.4407 9.141 13.664C8.46033 13.888 7.74667 14 7 14C6.25333 14 5.53967 13.8883 4.859 13.665C4.17833 13.4417 3.55867 13.1247 3 12.714V17.044Z" fill="#6B7280"/>
</svg>
