<svg width="16" height="16" viewBox="0 0 16 16" fill="none" xmlns="http://www.w3.org/2000/svg">
<path d="M7.96225 16C5.93158 16 4.16125 15.3367 2.65125 14.01C1.14192 12.684 0.268583 11.014 0.03125 9H1.04225C1.31425 10.72 2.09792 12.15 3.39325 13.29C4.68858 14.43 6.21158 15 7.96225 15C9.91225 15 11.5662 14.321 12.9242 12.963C14.2822 11.605 14.9616 9.95067 14.9622 8C14.9629 6.04933 14.2836 4.395 12.9242 3.037C11.5649 1.679 9.91092 1 7.96225 1C6.92692 1 5.95425 1.21867 5.04425 1.656C4.13425 2.09267 3.33092 2.69433 2.63425 3.461H5.11525V4.461H0.96225V0.309H1.96225V2.697C2.73558 1.84833 3.64158 1.187 4.68025 0.713C5.71892 0.239 6.81292 0.00133333 7.96225 0C9.07092 0 10.1102 0.208667 11.0802 0.626C12.0503 1.04333 12.8976 1.61467 13.6222 2.34C14.3469 3.06533 14.9183 3.91267 15.3363 4.882C15.7543 5.85133 15.9629 6.89067 15.9622 8C15.9616 9.10933 15.7529 10.1487 15.3363 11.118C14.9196 12.0873 14.3482 12.9347 13.6222 13.66C12.8962 14.3853 12.0489 14.9567 11.0802 15.374C10.1116 15.7913 9.07225 16 7.96225 16ZM11.1663 11.854L7.51925 8.208V3H8.51925V7.792L11.8733 11.146L11.1663 11.854Z" fill="#6B7280"/>
</svg>
