<svg width="9" height="17" viewBox="0 0 9 17" fill="none" xmlns="http://www.w3.org/2000/svg">
<path d="M6.49935 4.58489C6.6563 5.79479 5.68588 6.91774 5.68588 6.91774C5.68588 6.91774 4.46051 6.07921 4.30356 4.86931C4.14661 3.65868 5.11703 2.53573 5.11703 2.53573C5.11703 2.53573 6.34166 3.37573 6.49935 4.58489ZM7.65103 8.65152C7.13819 9.759 5.71756 10.1937 5.71756 10.1937C5.71756 10.1937 5.12809 8.83279 5.64093 7.72531C6.15377 6.61784 7.5744 6.18237 7.5744 6.18237C7.5744 6.18237 8.16388 7.54405 7.65103 8.65152ZM7.04609 12.5457C6.06756 13.2774 4.61009 12.9871 4.61009 12.9871C4.61009 12.9871 4.73977 11.5097 5.7183 10.7781C6.69682 10.0464 8.1543 10.3367 8.1543 10.3367C8.1543 10.3367 8.02461 11.8141 7.04609 12.5457ZM4.38682 15.7127C3.27788 16.227 1.91177 15.6427 1.91177 15.6427C1.91177 15.6427 2.3443 14.2243 3.45324 13.7092C4.56219 13.1949 5.9283 13.7799 5.9283 13.7799C5.9283 13.7799 5.49577 15.1984 4.38682 15.7127ZM3.15777 1.90058C4.04935 2.73542 4.01545 4.21721 4.01545 4.21721C4.01545 4.21721 2.5344 4.34689 1.64282 3.51205C0.751244 2.67721 0.785139 1.19468 0.785139 1.19468C0.785139 1.19468 2.26619 1.06573 3.15777 1.90058Z" stroke="#1F2A37" stroke-width="0.884211" stroke-linecap="round" stroke-linejoin="round"/>
</svg>
