<svg width="16" height="17" viewBox="0 0 16 17" fill="none" xmlns="http://www.w3.org/2000/svg">
<g clip-path="url(#clip0_5281_60614)">
<path d="M11.2512 0.568442C11.3491 0.62518 11.4248 0.713432 11.466 0.818779C11.5073 0.924127 11.5116 1.04034 11.4782 1.14844L9.6772 7.00044H13.0002C13.0979 7.0004 13.1934 7.02896 13.275 7.08259C13.3566 7.13622 13.4207 7.21258 13.4594 7.30223C13.4981 7.39189 13.5098 7.49092 13.4928 7.58709C13.4759 7.68327 13.4312 7.77239 13.3642 7.84344L5.3642 16.3434C5.28679 16.4258 5.18379 16.4794 5.07197 16.4957C4.96016 16.512 4.84613 16.4899 4.74847 16.4331C4.65081 16.3762 4.57528 16.288 4.53419 16.1827C4.4931 16.0775 4.48887 15.9614 4.5222 15.8534L6.3232 10.0004H3.0002C2.90254 10.0005 2.80702 9.97192 2.72541 9.91829C2.6438 9.86466 2.57968 9.7883 2.54096 9.69865C2.50225 9.609 2.49064 9.50997 2.50757 9.41379C2.52449 9.31761 2.56921 9.2285 2.6362 9.15744L10.6362 0.657442C10.7135 0.575241 10.8164 0.52161 10.928 0.50527C11.0397 0.48893 11.1536 0.510842 11.2512 0.567442V0.568442ZM4.1572 9.00044H7.0002C7.07845 9.00043 7.15561 9.01878 7.22547 9.05402C7.29533 9.08925 7.35595 9.1404 7.40245 9.20333C7.44895 9.26627 7.48002 9.33924 7.49318 9.41637C7.50633 9.49351 7.5012 9.57265 7.4782 9.64744L6.1102 14.0904L11.8422 8.00044H9.0002C8.92195 8.00046 8.84479 7.98211 8.77493 7.94687C8.70506 7.91163 8.64445 7.86049 8.59795 7.79755C8.55145 7.73461 8.52038 7.66164 8.50722 7.58451C8.49406 7.50738 8.49919 7.42823 8.5222 7.35344L9.8902 2.91044L4.1572 9.00044Z" fill="#4B5563"/>
</g>
<defs>
<clipPath id="clip0_5281_60614">
<rect width="16" height="16" fill="white" transform="translate(0 0.5)"/>
</clipPath>
</defs>
</svg>
