<svg width="12" height="18" viewBox="0 0 12 18" fill="none" xmlns="http://www.w3.org/2000/svg">
<path d="M3.962 18L2.842 14.066C2.00333 13.5733 1.32 12.8777 0.792 11.979C0.264 11.0803 0 10.0873 0 9C0 7.91267 0.264 6.91967 0.792 6.021C1.32 5.12233 2.00333 4.42667 2.842 3.934L3.962 0H8.039L9.158 3.935C9.99667 4.427 10.68 5.12233 11.208 6.021C11.736 6.91967 12 7.91267 12 9C12 10.0873 11.736 11.0803 11.208 11.979C10.68 12.8777 9.99667 13.5733 9.158 14.066L8.038 18H3.962ZM6 14C7.38333 14 8.56267 13.5123 9.538 12.537C10.5133 11.5617 11.0007 10.3827 11 9C10.9993 7.61733 10.5117 6.43833 9.537 5.463C8.56233 4.48767 7.38333 4 6 4C4.61667 4 3.43767 4.48767 2.463 5.463C1.48833 6.43833 1.00067 7.61733 1 9C0.999333 10.3827 1.487 11.562 2.463 12.538C3.439 13.514 4.618 14.0013 6 14ZM4.061 3.327C4.40767 3.21767 4.73833 3.135 5.053 3.079C5.36767 3.02233 5.68333 2.994 6 2.994C6.31667 2.994 6.63233 3.02233 6.947 3.079C7.26167 3.13567 7.592 3.21833 7.938 3.327L7.27 1H4.732L4.061 3.327ZM4.731 17H7.269L7.939 14.673C7.59233 14.7823 7.26167 14.861 6.947 14.909C6.63233 14.957 6.31667 14.9807 6 14.98C5.68333 14.9793 5.36767 14.9553 5.053 14.908C4.73833 14.8607 4.408 14.782 4.062 14.672L4.731 17Z" fill="#6B7280"/>
</svg>
