<svg width="27" height="22" viewBox="0 0 27 22" fill="none" xmlns="http://www.w3.org/2000/svg">
<path d="M0 19.0312C0 20.2734 1.00781 21.2812 2.25 21.2812H24.75C25.9922 21.2812 27 20.2734 27 19.0312V18.9797H24.1078L22.6125 17.3344L21.1172 18.9797H11.5688V11.3016H8.48438L12.3141 2.64375H15.9984L17.3156 5.60625V2.64375H21.8719L22.6641 4.875L23.4609 2.64375H27V2.53125C27 1.28906 25.9922 0.28125 24.75 0.28125H2.25C1.00781 0.28125 0 1.28906 0 2.53125V19.0312ZM20.6437 18.0141L22.6219 15.8438L24.5906 18.0141H27L23.8125 14.6344L27 11.2547H24.6281L22.6594 13.4437L20.7141 11.2547H18.3047L21.4688 14.6531L18.3094 18.0094V16.4578H14.4188V15.4172H18.2109V13.9031H14.4188V12.8531H18.3094V11.3016H12.5906V18.0141H20.6437ZM25.1578 14.6391L27 16.6031V12.6984L25.1578 14.6391ZM23.4562 10.3266L25.1859 5.61094V10.3266H27V3.60938H24.1781L22.6688 7.79531L21.1734 3.60938H18.3047V10.3172L15.3422 3.60938H12.9422L10.0172 10.3266H12.0328L12.5906 8.98125H15.6797L16.2422 10.3266H20.1188V5.625L21.8438 10.3266H23.4562ZM13.2188 7.47187L14.1328 5.27344L15.0422 7.47187H13.2188Z" fill="#3F83F8"/>
</svg>
