<svg width="24" height="17" viewBox="0 0 24 17" fill="none" xmlns="http://www.w3.org/2000/svg">
<path d="M21.005 15.0251C21.4981 13.8406 21.7513 12.5701 21.75 11.2871C21.75 5.90211 17.385 1.53711 12 1.53711C6.615 1.53711 2.25 5.90211 2.25 11.2871C2.25 12.6121 2.517 13.8736 2.995 15.0251M10.949 10.9591H15.069" stroke="#4B5563" stroke-linecap="round" stroke-linejoin="round"/>
<path d="M10.9477 10.959C9.83319 10.959 8.92969 11.869 8.92969 12.992C8.92969 14.115 9.83319 15.025 10.9477 15.025H12.0162C13.6982 15.025 15.0617 13.651 15.0617 11.956" stroke="#4B5563" stroke-linecap="round" stroke-linejoin="round"/>
<path d="M9.69922 7.69858C10.4387 6.95758 10.9567 6.89258 12.3842 6.89258C14.0047 6.89258 15.0692 7.60558 15.0692 9.53258V15.0251" stroke="#4B5563" stroke-linecap="round" stroke-linejoin="round"/>
</svg>
