<svg width="20" height="21" viewBox="0 0 20 21" fill="none" xmlns="http://www.w3.org/2000/svg">
<path d="M10.625 6.33398C10.625 6.16822 10.5592 6.00925 10.4419 5.89204C10.3247 5.77483 10.1658 5.70898 10 5.70898C9.83424 5.70898 9.67527 5.77483 9.55806 5.89204C9.44085 6.00925 9.375 6.16822 9.375 6.33398V10.5007C9.37496 10.6066 9.40185 10.7109 9.45317 10.8036C9.50448 10.8963 9.57852 10.9744 9.66833 11.0307L12.1683 12.5932C12.3089 12.6811 12.4786 12.7096 12.6402 12.6724C12.7203 12.654 12.7959 12.62 12.8627 12.5724C12.9296 12.5248 12.9864 12.4644 13.03 12.3948C13.0736 12.3252 13.103 12.2477 13.1166 12.1667C13.1302 12.0858 13.1277 12.0029 13.1093 11.9229C13.0909 11.8429 13.0569 11.7673 13.0092 11.7004C12.9616 11.6335 12.9013 11.5767 12.8317 11.5332L10.625 10.154V6.33398Z" fill="#6B7280"/>
<path fill-rule="evenodd" clip-rule="evenodd" d="M10.0007 3.20898C8.06678 3.20898 6.21212 3.97721 4.84466 5.34466C3.47721 6.71212 2.70898 8.56678 2.70898 10.5007C2.70898 12.4345 3.47721 14.2892 4.84466 15.6566C6.21212 17.0241 8.06678 17.7923 10.0007 17.7923C11.9345 17.7923 13.7892 17.0241 15.1566 15.6566C16.5241 14.2892 17.2923 12.4345 17.2923 10.5007C17.2923 8.56678 16.5241 6.71212 15.1566 5.34466C13.7892 3.97721 11.9345 3.20898 10.0007 3.20898ZM3.95898 10.5007C3.95898 9.70725 4.11526 8.92161 4.41888 8.1886C4.7225 7.4556 5.16753 6.78957 5.72855 6.22855C6.28957 5.66753 6.9556 5.2225 7.6886 4.91888C8.42161 4.61526 9.20725 4.45898 10.0007 4.45898C10.7941 4.45898 11.5797 4.61526 12.3127 4.91888C13.0457 5.2225 13.7117 5.66753 14.2728 6.22855C14.8338 6.78957 15.2788 7.4556 15.5824 8.1886C15.886 8.92161 16.0423 9.70725 16.0423 10.5007C16.0423 12.103 15.4058 13.6397 14.2728 14.7728C13.1397 15.9058 11.603 16.5423 10.0007 16.5423C8.3983 16.5423 6.86158 15.9058 5.72855 14.7728C4.59552 13.6397 3.95898 12.103 3.95898 10.5007Z" fill="#6B7280"/>
</svg>
