<svg width="16" height="16" viewBox="0 0 16 16" fill="none" xmlns="http://www.w3.org/2000/svg">
<path d="M7.58333 11.5313H8.41667V6.94792H7.58333V11.5313ZM8 5.76208C8.14556 5.76208 8.2675 5.71292 8.36583 5.61458C8.46417 5.51625 8.51305 5.39431 8.5125 5.24875C8.51194 5.1032 8.46278 4.98153 8.365 4.88375C8.26722 4.78597 8.14556 4.73681 8 4.73625C7.85444 4.73569 7.73278 4.78486 7.635 4.88375C7.53722 4.98264 7.48806 5.10458 7.4875 5.24958C7.48694 5.39458 7.53611 5.51625 7.635 5.61458C7.73389 5.71292 7.85556 5.76208 8 5.76208ZM8.0025 15.2813C6.96528 15.2813 5.99028 15.0846 5.0775 14.6913C4.16472 14.2974 3.37056 13.7629 2.695 13.0879C2.01944 12.4129 1.48472 11.6196 1.09083 10.7079C0.696945 9.79625 0.5 8.82153 0.5 7.78375C0.5 6.74597 0.696945 5.77097 1.09083 4.85875C1.48417 3.94597 2.01778 3.15181 2.69167 2.47625C3.36556 1.80069 4.15917 1.26597 5.0725 0.872083C5.98583 0.478195 6.96083 0.28125 7.9975 0.28125C9.03417 0.28125 10.0092 0.478195 10.9225 0.872083C11.8353 1.26542 12.6294 1.79931 13.305 2.47375C13.9806 3.14819 14.5153 3.94181 14.9092 4.85458C15.3031 5.76736 15.5 6.74208 15.5 7.77875C15.5 8.81542 15.3033 9.79042 14.91 10.7038C14.5167 11.6171 13.9822 12.4113 13.3067 13.0863C12.6311 13.7612 11.8378 14.296 10.9267 14.6904C10.0156 15.0849 9.04083 15.2818 8.0025 15.2813ZM8 14.4479C9.86111 14.4479 11.4375 13.8021 12.7292 12.5104C14.0208 11.2188 14.6667 9.64236 14.6667 7.78125C14.6667 5.92014 14.0208 4.34375 12.7292 3.05208C11.4375 1.76042 9.86111 1.11458 8 1.11458C6.13889 1.11458 4.5625 1.76042 3.27083 3.05208C1.97917 4.34375 1.33333 5.92014 1.33333 7.78125C1.33333 9.64236 1.97917 11.2188 3.27083 12.5104C4.5625 13.8021 6.13889 14.4479 8 14.4479Z" fill="#3F83F8"/>
</svg>
