<svg width="42" height="27" viewBox="0 0 42 27" fill="none" xmlns="http://www.w3.org/2000/svg">
<g clip-path="url(#clip0_5281_51955)">
<path d="M0.00390625 2C0.00390625 0.895429 0.899337 0 2.00391 0H40.0012C41.1058 0 42.0012 0.895431 42.0012 2V24.796C42.0012 25.9006 41.1058 26.796 40.0012 26.796H2.0039C0.899335 26.796 0.00390625 25.9006 0.00390625 24.796V2Z" fill="#FFCB01"/>
<path d="M7.80638 10.2031L6.50586 11.9702H13.5939C13.9523 11.9702 13.9479 12.1052 13.7727 12.3438C13.5948 12.5852 13.2971 13.0026 13.1157 13.2484C13.0236 13.3726 12.8574 13.5988 13.408 13.5988H16.3067L17.1656 12.4314C17.6983 11.7083 17.2121 10.204 15.3074 10.204L7.80638 10.2031Z" fill="#D80613"/>
<path d="M5.97815 15.9603L8.59081 12.41H11.8327C12.1911 12.41 12.1867 12.5458 12.0115 12.7836L11.35 13.6846C11.258 13.8088 11.0917 14.035 11.6423 14.035H15.9845C15.6243 14.5301 14.4516 15.9603 12.3493 15.9603H5.97815ZM20.939 14.0341L19.5223 15.9603H15.7852L17.2019 14.0341H20.939ZM26.6631 13.5979H17.5237L20.0228 10.2031H23.7581L22.3262 12.1499H23.9932L25.4269 10.2031H29.1622L26.6631 13.5979ZM26.3422 14.0341L24.9255 15.9603H21.1902L22.6069 14.0341H26.3422ZM0.646484 14.7938H6.15066L5.85034 15.2023H0.646484V14.7938ZM0.646484 14.0341H6.7102L6.40898 14.4425H0.646484V14.0341ZM0.646484 15.5536H5.59202L5.29259 15.9603H0.646484V15.5536ZM41.354 15.2023H35.8695L36.1707 14.7938H41.354V15.2023ZM41.354 15.9603H35.3126L35.6112 15.5536H41.354V15.9603ZM36.7293 14.0341H41.354V14.4434H36.429L36.7293 14.0341ZM34.3357 10.2031L31.8365 13.5979H27.8778L30.3787 10.2031H34.3357ZM27.5578 14.0341C27.5578 14.0341 27.2852 14.4077 27.152 14.5864C26.6836 15.2211 27.0975 15.9594 28.6286 15.9594H34.628L36.0447 14.0341H27.5578Z" fill="#D80613"/>
</g>
<defs>
<clipPath id="clip0_5281_51955">
<rect width="42" height="26.796" fill="white"/>
</clipPath>
</defs>
</svg>
