<svg width="38" height="13" viewBox="0 0 38 13" fill="none" xmlns="http://www.w3.org/2000/svg">
<path d="M34.6386 12.1983L33.0827 10.4537L31.5407 12.1983H28.2956L31.4671 8.63523L28.2956 5.07111H31.642L33.2134 6.80252L34.7258 5.07111H37.9549L34.7992 8.62028L37.9987 12.1983H34.6386ZM22.0645 12.1983V0.970703H28.2956V3.47333H24.7039V5.07111H28.2956V7.47923H24.7039V9.68943H28.2956V12.1983H22.0645Z" fill="#FF5A00"/>
<path d="M19.4351 0.970703V5.5657H19.4058C18.8239 4.8969 18.0966 4.66371 17.2531 4.66371C15.5249 4.66371 14.2229 5.83954 13.7659 7.3927C13.2446 5.68095 11.9003 4.63179 9.90748 4.63179C8.28868 4.63179 7.01086 5.35806 6.34333 6.54195V5.07094H2.99783V3.4736H6.64914V0.971241H0.015625V12.1983H2.99783V7.47922H5.97033C5.87876 7.8421 5.83299 8.21507 5.83409 8.58937C5.83409 10.9303 7.623 12.5753 9.90696 12.5753C11.8268 12.5753 13.0931 11.6732 13.7622 10.0306H11.2063C10.8609 10.5251 10.5984 10.6709 9.90723 10.6709C9.10609 10.6709 8.41468 9.97167 8.41468 9.14377H13.6189C13.8446 11.0035 15.2936 12.6071 17.2823 12.6071C18.1401 12.6071 18.9255 12.1852 19.4057 11.4726H19.4344V12.2H22.0639V0.971241H19.4351V0.970703ZM8.49763 7.51282C8.66379 6.79933 9.21687 6.3333 9.90723 6.3333C10.6674 6.3333 11.1924 6.78505 11.3302 7.51282H8.49763ZM17.8392 10.4898C16.8704 10.4898 16.2683 9.58712 16.2683 8.6443C16.2683 7.6363 16.7922 6.66795 17.8392 6.66795C18.9257 6.66795 19.3586 7.63681 19.3586 8.6443C19.3586 9.59922 18.9003 10.4898 17.8392 10.4898Z" fill="#29007C"/>
</svg>
