<svg width="10" height="12" viewBox="0 0 10 12" fill="none" xmlns="http://www.w3.org/2000/svg">
<path d="M4.99935 5.70768C4.61258 5.70768 4.24164 5.55404 3.96815 5.28055C3.69466 5.00706 3.54102 4.63612 3.54102 4.24935C3.54102 3.86257 3.69466 3.49164 3.96815 3.21815C4.24164 2.94466 4.61258 2.79102 4.99935 2.79102C5.38612 2.79102 5.75706 2.94466 6.03055 3.21815C6.30404 3.49164 6.45768 3.86257 6.45768 4.24935C6.45768 4.44086 6.41996 4.6305 6.34667 4.80743C6.27339 4.98436 6.16597 5.14513 6.03055 5.28055C5.89513 5.41597 5.73436 5.52339 5.55743 5.59667C5.3805 5.66996 5.19086 5.70768 4.99935 5.70768ZM4.99935 0.166016C3.91638 0.166016 2.87777 0.596223 2.112 1.362C1.34622 2.12777 0.916016 3.16638 0.916016 4.24935C0.916016 7.31185 4.99935 11.8327 4.99935 11.8327C4.99935 11.8327 9.08268 7.31185 9.08268 4.24935C9.08268 3.16638 8.65248 2.12777 7.8867 1.362C7.12093 0.596223 6.08232 0.166016 4.99935 0.166016Z" fill="black"/>
</svg>
