<svg width="31" height="25" viewBox="0 0 31 25" fill="none" xmlns="http://www.w3.org/2000/svg">
<g clip-path="url(#clip0_5281_52049)">
<path d="M5.73441 24.6628V23.0743C5.73441 22.4653 5.36367 22.0682 4.72822 22.0682C4.41055 22.0682 4.06635 22.1741 3.82804 22.5183C3.64279 22.2271 3.37807 22.0682 2.98092 22.0682C2.71608 22.0682 2.45147 22.1476 2.23957 22.4389V22.1212H1.68359V24.6628H2.23957V23.2596C2.23957 22.8096 2.47789 22.5977 2.84862 22.5977C3.21911 22.5977 3.4046 22.836 3.4046 23.2596V24.6628H3.96058V23.2596C3.96058 22.8096 4.22518 22.5977 4.56938 22.5977C4.94012 22.5977 5.12536 22.836 5.12536 23.2596V24.6628H5.73441ZM13.9681 22.1212H13.068V21.3534H12.5121V22.1212H12.009V22.6241H12.5119V23.7891C12.5119 24.3716 12.7502 24.7157 13.3857 24.7157C13.624 24.7157 13.8886 24.6364 14.0741 24.5305L13.9152 24.0538C13.7563 24.1597 13.5711 24.1863 13.4386 24.1863C13.1739 24.1863 13.068 24.0274 13.068 23.7626V22.6241H13.9681V22.1212ZM18.6808 22.0681C18.3631 22.0681 18.1513 22.2271 18.0189 22.4389V22.1212H17.4629V24.6628H18.0189V23.2331C18.0189 22.8096 18.2042 22.5713 18.5484 22.5713C18.6542 22.5713 18.7867 22.5978 18.8926 22.6242L19.0514 22.0948C18.9455 22.0682 18.7867 22.0682 18.6808 22.0682M11.5589 22.3331C11.2941 22.1477 10.9235 22.0684 10.5263 22.0684C9.89099 22.0684 9.46743 22.386 9.46743 22.8891C9.46743 23.3127 9.7851 23.5509 10.3411 23.6304L10.6058 23.6569C10.8971 23.7098 11.0559 23.7892 11.0559 23.9217C11.0559 24.1069 10.8441 24.2393 10.4734 24.2393C10.1026 24.2393 9.81151 24.1069 9.62615 23.9746L9.36142 24.3982C9.65268 24.6099 10.0498 24.7158 10.4469 24.7158C11.1882 24.7158 11.6119 24.3718 11.6119 23.8951C11.6119 23.445 11.2677 23.2067 10.7381 23.1274L10.4734 23.1008C10.2351 23.0743 10.0498 23.0215 10.0498 22.8627C10.0498 22.6773 10.2351 22.5714 10.5263 22.5714C10.8441 22.5714 11.1618 22.7037 11.3206 22.7832L11.5589 22.3331ZM26.3322 22.0684C26.0144 22.0684 25.8026 22.2272 25.6702 22.439V22.1213H25.1142V24.6629H25.6702V23.2333C25.6702 22.8097 25.8556 22.5714 26.1997 22.5714C26.3057 22.5714 26.4381 22.5979 26.544 22.6243L26.7028 22.0949C26.5969 22.0684 26.4381 22.0684 26.3322 22.0684ZM19.2368 23.3921C19.2368 24.1599 19.7662 24.7158 20.587 24.7158C20.9576 24.7158 21.2224 24.6365 21.4871 24.4247L21.2224 23.9746C21.0106 24.1334 20.7988 24.2128 20.5605 24.2128C20.1104 24.2128 19.7927 23.8951 19.7927 23.3921C19.7927 22.9156 20.1104 22.5978 20.5605 22.5714C20.7988 22.5714 21.0106 22.6508 21.2224 22.8097L21.4871 22.3596C21.2224 22.1477 20.9576 22.0684 20.587 22.0684C19.7662 22.0684 19.2368 22.6243 19.2368 23.3921ZM24.373 23.3921V22.1213H23.817V22.439C23.6317 22.2008 23.3669 22.0684 23.0227 22.0684C22.3079 22.0684 21.7519 22.6243 21.7519 23.3921C21.7519 24.1599 22.3079 24.7158 23.0227 24.7158C23.3933 24.7158 23.6582 24.5835 23.817 24.3452V24.6629H24.373V23.3921ZM22.3343 23.3921C22.3343 22.942 22.6256 22.5714 23.1021 22.5714C23.5522 22.5714 23.87 22.9156 23.87 23.3921C23.87 23.8422 23.5522 24.2128 23.1021 24.2128C22.6256 24.1863 22.3343 23.8422 22.3343 23.3921ZM15.6891 22.0684C14.9478 22.0684 14.4182 22.5978 14.4182 23.3921C14.4182 24.1864 14.9476 24.7158 15.7155 24.7158C16.0861 24.7158 16.4569 24.6099 16.7481 24.3718L16.4833 23.9746C16.2715 24.1334 16.0068 24.2393 15.742 24.2393C15.3978 24.2393 15.0536 24.0805 14.9742 23.6303H16.854V23.4186C16.8805 22.5978 16.404 22.0684 15.6891 22.0684ZM15.689 22.5449C16.0331 22.5449 16.2715 22.7568 16.3243 23.1539H15.0006C15.0535 22.8097 15.2918 22.5449 15.689 22.5449ZM29.4826 23.3921V21.1152H28.9266V22.439C28.7412 22.2008 28.4765 22.0684 28.1323 22.0684C27.4175 22.0684 26.8615 22.6243 26.8615 23.3921C26.8615 24.1599 27.4175 24.7158 28.1323 24.7158C28.5031 24.7158 28.7678 24.5835 28.9266 24.3452V24.6629H29.4826V23.3921ZM27.444 23.3921C27.444 22.942 27.7352 22.5714 28.2118 22.5714C28.6619 22.5714 28.9796 22.9156 28.9796 23.3921C28.9796 23.8422 28.6619 24.2128 28.2118 24.2128C27.7352 24.1863 27.444 23.8422 27.444 23.3921ZM8.85827 23.3921V22.1213H8.30229V22.439C8.11692 22.2008 7.8522 22.0684 7.508 22.0684C6.79318 22.0684 6.2372 22.6243 6.2372 23.3921C6.2372 24.1599 6.79318 24.7158 7.508 24.7158C7.87873 24.7158 8.14345 24.5835 8.30229 24.3452V24.6629H8.85827V23.3921ZM6.79318 23.3921C6.79318 22.942 7.08444 22.5714 7.56094 22.5714C8.01103 22.5714 8.32882 22.9156 8.32882 23.3921C8.32882 23.8422 8.01103 24.2128 7.56094 24.2128C7.08444 24.1863 6.79318 23.8422 6.79318 23.3921Z" fill="#6B7280"/>
<path d="M11.373 2.82031H19.7127V17.8054H11.373V2.82031Z" fill="#FF5F00"/>
<path d="M11.9027 10.3124C11.9027 7.26776 13.3323 4.56722 15.5297 2.8198C13.9148 1.54901 11.8763 0.78125 9.65235 0.78125C4.38357 0.78125 0.121094 5.04372 0.121094 10.3124C0.121094 15.581 4.38357 19.8435 9.65223 19.8435C11.8761 19.8435 13.9147 19.0758 15.5297 17.8048C13.3323 16.084 11.9027 13.357 11.9027 10.3124Z" fill="#EB001B"/>
<path d="M30.9652 10.3124C30.9652 15.5809 26.7028 19.8435 21.4341 19.8435C19.2102 19.8435 17.1716 19.0758 15.5566 17.8048C17.7806 16.0576 19.1838 13.357 19.1838 10.3124C19.1838 7.26776 17.754 4.56722 15.5566 2.8198C17.1715 1.54901 19.2102 0.78125 21.4341 0.78125C26.7028 0.78125 30.9652 5.07026 30.9652 10.3124Z" fill="#F79E1B"/>
</g>
<defs>
<clipPath id="clip0_5281_52049">
<rect width="30.88" height="24" fill="white" transform="translate(0.119141 0.78125)"/>
</clipPath>
</defs>
</svg>
