<svg width="26" height="33" viewBox="0 0 26 33" fill="none" xmlns="http://www.w3.org/2000/svg">
<g clip-path="url(#clip0_5281_51985)">
<path d="M12.9997 31.5856C13.2637 31.4531 20.1266 28.4722 22.3043 26.6837C24.5479 24.8289 25.7358 22.1792 25.7358 18.9996V4.09528L25.5378 4.02904C20.0606 1.04817 13.2637 1.24689 12.9337 1.24689C12.6698 1.24689 5.87281 1.04817 0.395652 4.02904L0.263672 4.09528V19.0659C0.263672 22.2455 1.45149 24.8952 3.69514 26.7499C5.87281 28.5384 12.7358 31.5193 12.9997 31.5856Z" fill="#341B14"/>
<path d="M13 31.9165C13 31.9165 5.74112 28.7369 3.49746 26.9484C1.12183 24.9611 0 22.2452 0 19.1319V3.63134C5.74112 0.517983 13 0.78295 13 0.78295C13 0.78295 20.2589 0.517983 26 3.63134V19.0656C26 22.179 24.8782 24.8949 22.5025 26.8822C20.2589 28.7369 13 31.9165 13 31.9165ZM1.05584 19.1319C1.05584 22.0465 2.11168 24.4312 4.15736 26.0873C6.00508 27.6108 11.4822 30.0617 13 30.7242C14.5178 30.0617 20.0609 27.5446 21.8426 26.0873C23.8883 24.4312 24.9442 21.9803 24.9442 19.1319V3.89631C17.2893 3.16765 8.18274 3.5651 1.05584 10.1893V19.1319Z" fill="#FFB406"/>
<path d="M20.3249 16.946C21.3148 17.5422 21.7107 17.9396 21.7767 18.6683C21.7767 19.4632 21.2488 19.9269 20.3909 19.9269C19.665 19.9269 18.8072 19.5294 18.2133 18.9995V21.1192C18.9392 21.5167 19.797 21.8479 20.7209 21.8479C22.9645 21.8479 24.0204 20.2581 24.0204 18.8008C24.0864 17.4759 23.6904 16.4161 21.7767 15.2899C20.9189 14.76 20.259 14.4288 20.259 13.6339C20.259 12.839 20.9848 12.5078 21.5788 12.5078C22.3706 12.5078 23.1625 12.9715 23.6244 13.4352V11.4479C23.2285 11.1167 22.3706 10.653 21.1168 10.7193C19.5991 10.7855 18.0153 11.8454 18.0153 13.7001C18.0813 14.9587 18.4772 15.8861 20.3249 16.946ZM12.5381 21.7154C12.7361 21.7816 13.0661 21.8479 13.594 21.8479C16.1676 21.8479 17.6194 19.5294 17.6194 16.2173C17.6194 12.839 16.1016 10.7855 13.396 10.7855C12.1422 10.7855 11.1524 11.0505 10.2945 11.5804V26.551H12.5381V21.7154ZM12.5381 12.7065C12.7361 12.6403 13.0661 12.5078 13.33 12.5078C14.6498 12.5078 15.1777 13.5677 15.1777 16.1511C15.1777 18.6683 14.5178 19.8606 13.198 19.8606C12.8681 19.8606 12.6041 19.7944 12.4722 19.7281V12.7065H12.5381ZM5.60921 21.8479C6.99499 21.8479 8.18281 21.5167 9.04068 20.9205V10.918H6.73103V19.5957C6.46707 19.7944 6.13713 19.8606 5.6752 19.8606C4.61936 19.8606 4.48738 18.867 4.48738 18.2708V10.918H2.17773V18.1383C2.17773 20.5893 3.36555 21.8479 5.60921 21.8479ZM20.9848 30.7905V32.314H21.2488V31.7179H21.3148L21.7107 32.314H22.0407C22.0407 32.314 21.6447 31.7179 21.5788 31.6516C21.7767 31.5854 21.9087 31.4529 21.9087 31.2542C21.9087 31.0555 21.7767 30.7905 21.3808 30.7905H20.9848ZM21.3808 30.9892C21.5788 30.9892 21.6447 31.1217 21.6447 31.1879C21.6447 31.3204 21.5788 31.4529 21.3148 31.4529H21.2488V30.9892H21.3808Z" fill="#FFB406"/>
<path d="M22.437 31.5203C22.437 32.0502 21.9751 32.5139 21.4472 32.5139C20.9192 32.5139 20.4573 32.0502 20.4573 31.5203C20.4573 30.9904 20.9192 30.5267 21.4472 30.5267C22.0411 30.5267 22.437 30.9904 22.437 31.5203ZM21.4472 30.2617C20.7873 30.2617 20.1934 30.7917 20.1934 31.5203C20.1934 32.1827 20.7213 32.7789 21.4472 32.7789C22.1071 32.7789 22.701 32.249 22.701 31.5203C22.701 30.8579 22.1071 30.2617 21.4472 30.2617Z" fill="#FFB406"/>
</g>
<defs>
<clipPath id="clip0_5281_51985">
<rect width="26" height="32" fill="white" transform="translate(0 0.78125)"/>
</clipPath>
</defs>
</svg>
