<svg width="25" height="9" viewBox="0 0 25 9" fill="none" xmlns="http://www.w3.org/2000/svg">
<path d="M9.23114 1.0423L6.08914 8.5383H4.03914L2.49314 2.5553C2.39914 2.1873 2.31814 2.0523 2.03214 1.8973C1.56614 1.6443 0.796141 1.4073 0.119141 1.2593L0.165141 1.0423H3.46514C3.68079 1.04208 3.88941 1.11896 4.05335 1.25906C4.21729 1.39916 4.32574 1.59325 4.35914 1.8063L5.17614 6.1443L7.19414 1.0423H9.23114ZM17.2641 6.0913C17.2721 4.1123 14.5281 4.0033 14.5471 3.1193C14.5531 2.8503 14.8091 2.5643 15.3691 2.4913C16.0254 2.42897 16.6864 2.54506 17.2821 2.8273L17.6221 1.2373C17.0421 1.0191 16.4278 0.906323 15.8081 0.904297C13.8911 0.904297 12.5421 1.9243 12.5301 3.3833C12.5181 4.4623 13.4931 5.0633 14.2281 5.4233C14.9841 5.7903 15.2381 6.0263 15.2341 6.3543C15.2291 6.8583 14.6321 7.0793 14.0741 7.0883C13.0991 7.1033 12.5341 6.8253 12.0821 6.6153L11.7311 8.2573C12.1841 8.4653 13.0201 8.6473 13.8871 8.6553C15.9241 8.6553 17.2571 7.6493 17.2641 6.0913ZM22.3251 8.5383H24.1191L22.5541 1.0423H20.8981C20.7211 1.04025 20.5476 1.09164 20.4002 1.18976C20.2529 1.28788 20.1385 1.42817 20.0721 1.5923L17.1631 8.5383H19.1991L19.6041 7.4183H22.0921L22.3251 8.5383ZM20.1621 5.8823L21.1821 3.0673L21.7701 5.8823H20.1621ZM12.0021 1.0423L10.3991 8.5383H8.45914L10.0641 1.0423H12.0021Z" fill="#233876"/>
</svg>
