<svg width="24" height="24" viewBox="0 0 24 24" fill="none" xmlns="http://www.w3.org/2000/svg">
<g clip-path="url(#clip0_5281_53001)">
<path d="M21.4989 4H19.3322V5.33333H21.3322V20H2.66554V5.33333H4.66554V4H2.49887C2.34303 4.0026 2.18923 4.03588 2.04625 4.09794C1.90327 4.15999 1.77392 4.24961 1.66558 4.36166C1.55724 4.47371 1.47203 4.60601 1.41483 4.751C1.35763 4.89599 1.32955 5.05083 1.3322 5.20667V20.1267C1.32955 20.2825 1.35763 20.4373 1.41483 20.5823C1.47203 20.7273 1.55724 20.8596 1.66558 20.9717C1.77392 21.0837 1.90327 21.1733 2.04625 21.2354C2.18923 21.2974 2.34303 21.3307 2.49887 21.3333H21.4989C21.6547 21.3307 21.8085 21.2974 21.9515 21.2354C22.0945 21.1733 22.2238 21.0837 22.3322 20.9717C22.4405 20.8596 22.5257 20.7273 22.5829 20.5823C22.6401 20.4373 22.6682 20.2825 22.6655 20.1267V5.20667C22.6682 5.05083 22.6401 4.89599 22.5829 4.751C22.5257 4.60601 22.4405 4.47371 22.3322 4.36166C22.2238 4.24961 22.0945 4.15999 21.9515 4.09794C21.8085 4.03588 21.6547 4.0026 21.4989 4Z" fill="#1C64F2"/>
<path d="M5.33203 9.33398H6.66536V10.6673H5.33203V9.33398Z" fill="#1C64F2"/>
<path d="M9.33203 9.33398H10.6654V10.6673H9.33203V9.33398Z" fill="#1C64F2"/>
<path d="M13.332 9.33398H14.6654V10.6673H13.332V9.33398Z" fill="#1C64F2"/>
<path d="M17.332 9.33398H18.6654V10.6673H17.332V9.33398Z" fill="#1C64F2"/>
<path d="M5.33203 12.666H6.66536V13.9993H5.33203V12.666Z" fill="#1C64F2"/>
<path d="M9.33203 12.666H10.6654V13.9993H9.33203V12.666Z" fill="#1C64F2"/>
<path d="M13.332 12.666H14.6654V13.9993H13.332V12.666Z" fill="#1C64F2"/>
<path d="M17.332 12.666H18.6654V13.9993H17.332V12.666Z" fill="#1C64F2"/>
<path d="M5.33203 16H6.66536V17.3333H5.33203V16Z" fill="#1C64F2"/>
<path d="M9.33203 16H10.6654V17.3333H9.33203V16Z" fill="#1C64F2"/>
<path d="M13.332 16H14.6654V17.3333H13.332V16Z" fill="#1C64F2"/>
<path d="M17.332 16H18.6654V17.3333H17.332V16Z" fill="#1C64F2"/>
<path d="M6.66667 6.66732C6.84348 6.66732 7.01305 6.59708 7.13807 6.47206C7.2631 6.34703 7.33333 6.17746 7.33333 6.00065V2.00065C7.33333 1.82384 7.2631 1.65427 7.13807 1.52925C7.01305 1.40422 6.84348 1.33398 6.66667 1.33398C6.48986 1.33398 6.32029 1.40422 6.19526 1.52925C6.07024 1.65427 6 1.82384 6 2.00065V6.00065C6 6.17746 6.07024 6.34703 6.19526 6.47206C6.32029 6.59708 6.48986 6.66732 6.66667 6.66732Z" fill="#1C64F2"/>
<path d="M17.3346 6.66732C17.5114 6.66732 17.681 6.59708 17.806 6.47206C17.9311 6.34703 18.0013 6.17746 18.0013 6.00065V2.00065C18.0013 1.82384 17.9311 1.65427 17.806 1.52925C17.681 1.40422 17.5114 1.33398 17.3346 1.33398C17.1578 1.33398 16.9883 1.40422 16.8632 1.52925C16.7382 1.65427 16.668 1.82384 16.668 2.00065V6.00065C16.668 6.17746 16.7382 6.34703 16.8632 6.47206C16.9883 6.59708 17.1578 6.66732 17.3346 6.66732Z" fill="#1C64F2"/>
<path d="M8.66797 4H15.3346V5.33333H8.66797V4Z" fill="#1C64F2"/>
</g>
<defs>
<clipPath id="clip0_5281_53001">
<rect width="24" height="24" fill="white"/>
</clipPath>
</defs>
</svg>
