<svg width="17" height="16" viewBox="0 0 17 16" fill="none" xmlns="http://www.w3.org/2000/svg">
<path d="M4.14453 11.6469L8.14303 7.64844L8.85003 8.35544L4.85153 12.3539L4.14453 11.6469Z" fill="black"/>
<path d="M9.00089 15C8.93756 15.0002 8.87478 14.9883 8.81589 14.965C8.73397 14.9324 8.66215 14.8786 8.60771 14.8093C8.55327 14.7399 8.51814 14.6574 8.50589 14.57L8.00589 11.07L9.00589 10.93L9.38089 13.565L11.0009 12.26V8.50003C11.0005 8.43423 11.0131 8.369 11.038 8.30808C11.0629 8.24716 11.0995 8.19175 11.1459 8.14503L13.1809 6.11003C13.6002 5.69356 13.9328 5.19806 14.1593 4.65222C14.3859 4.10638 14.502 3.52103 14.5009 2.93003V2.00003H13.5709C12.9799 1.99891 12.3945 2.11499 11.8487 2.34157C11.3029 2.56814 10.8074 2.90071 10.3909 3.32003L8.35589 5.35503C8.30917 5.40137 8.25376 5.43803 8.19284 5.46292C8.13192 5.4878 8.06669 5.50041 8.00089 5.50003H4.24089L2.93589 7.13003L5.57089 7.50503L5.43089 8.50503L1.93089 8.00503C1.84356 7.99278 1.76102 7.95765 1.69165 7.90321C1.62228 7.84877 1.56854 7.77695 1.53589 7.69503C1.50283 7.61254 1.49235 7.52274 1.50553 7.43485C1.51871 7.34697 1.55508 7.26419 1.61089 7.19503L3.61089 4.69503C3.65695 4.63519 3.71597 4.58655 3.78351 4.55278C3.85106 4.51901 3.92537 4.50097 4.00089 4.50003H7.79589L9.68089 2.61003C10.1905 2.09758 10.7967 1.6914 11.4645 1.41503C12.1322 1.13865 12.8482 0.997596 13.5709 1.00003H14.5009C14.7661 1.00003 15.0205 1.10539 15.208 1.29292C15.3955 1.48046 15.5009 1.73481 15.5009 2.00003V2.93003C15.5033 3.65271 15.3623 4.36869 15.0859 5.03645C14.8095 5.7042 14.4033 6.31045 13.8909 6.82003L12.0009 8.70503V12.5C12.0005 12.5751 11.9833 12.6492 11.9504 12.7167C11.9175 12.7842 11.8698 12.8435 11.8109 12.89L9.31089 14.89C9.22292 14.9606 9.11367 14.9994 9.00089 15Z" fill="black"/>
</svg>
