<svg width="16" height="17" viewBox="0 0 16 17" fill="none" xmlns="http://www.w3.org/2000/svg">
<path d="M3.64453 12.1469L7.64303 8.14844L8.35003 8.85544L4.35153 12.8539L3.64453 12.1469Z" fill="#4B5563"/>
<path d="M8.50089 15.5C8.43756 15.5002 8.37478 15.4883 8.31589 15.465C8.23397 15.4324 8.16215 15.3786 8.10771 15.3093C8.05327 15.2399 8.01814 15.1574 8.00589 15.07L7.50589 11.57L8.50589 11.43L8.88089 14.065L10.5009 12.76V9.00003C10.5005 8.93423 10.5131 8.869 10.538 8.80808C10.5629 8.74716 10.5995 8.69175 10.6459 8.64503L12.6809 6.61003C13.1002 6.19356 13.4328 5.69806 13.6593 5.15222C13.8859 4.60638 14.002 4.02103 14.0009 3.43003V2.50003H13.0709C12.4799 2.49891 11.8945 2.61499 11.3487 2.84157C10.8029 3.06814 10.3074 3.40071 9.89089 3.82003L7.85589 5.85503C7.80917 5.90137 7.75376 5.93803 7.69284 5.96292C7.63192 5.9878 7.56669 6.00041 7.50089 6.00003H3.74089L2.43589 7.63003L5.07089 8.00503L4.93089 9.00503L1.43089 8.50503C1.34356 8.49278 1.26102 8.45765 1.19165 8.40321C1.12228 8.34877 1.06854 8.27695 1.03589 8.19503C1.00283 8.11254 0.99235 8.02274 1.00553 7.93485C1.01871 7.84697 1.05508 7.76419 1.11089 7.69503L3.11089 5.19503C3.15695 5.13519 3.21597 5.08655 3.28351 5.05278C3.35106 5.01901 3.42537 5.00097 3.50089 5.00003H7.29589L9.18089 3.11003C9.69047 2.59758 10.2967 2.1914 10.9645 1.91503C11.6322 1.63865 12.3482 1.4976 13.0709 1.50003H14.0009C14.2661 1.50003 14.5205 1.60539 14.708 1.79292C14.8955 1.98046 15.0009 2.23481 15.0009 2.50003V3.43003C15.0033 4.15271 14.8623 4.86869 14.5859 5.53645C14.3095 6.2042 13.9033 6.81045 13.3909 7.32003L11.5009 9.20503V13C11.5005 13.0751 11.4833 13.1492 11.4504 13.2167C11.4175 13.2842 11.3698 13.3435 11.3109 13.39L8.81089 15.39C8.72292 15.4606 8.61367 15.4994 8.50089 15.5Z" fill="#4B5563"/>
</svg>
