<svg width="16" height="17" viewBox="0 0 16 17" fill="none" xmlns="http://www.w3.org/2000/svg">
<path d="M14.6667 2.66797C14.8877 2.66797 15.0996 2.75577 15.2559 2.91205C15.4122 3.06833 15.5 3.28029 15.5 3.5013C15.5 3.72232 15.4122 3.93428 15.2559 4.09056C15.0996 4.24684 14.8877 4.33464 14.6667 4.33464H13.8333L13.8308 4.3938L13.0533 15.2863C13.0234 15.7068 12.8352 16.1003 12.5268 16.3876C12.2183 16.6749 11.8124 16.8346 11.3908 16.8346H4.60833C4.18678 16.8346 3.78089 16.6749 3.4724 16.3876C3.16392 16.1003 2.97576 15.7068 2.94583 15.2863L2.16833 4.39464L2.16667 4.33464H1.33333C1.11232 4.33464 0.900358 4.24684 0.744078 4.09056C0.587797 3.93428 0.5 3.72232 0.5 3.5013C0.5 3.28029 0.587797 3.06833 0.744078 2.91205C0.900358 2.75577 1.11232 2.66797 1.33333 2.66797H14.6667ZM12.1642 4.33464H3.83583L4.60917 15.168H11.3908L12.1642 4.33464ZM9.66667 0.167969C9.88768 0.167969 10.0996 0.255766 10.2559 0.412046C10.4122 0.568327 10.5 0.780288 10.5 1.0013C10.5 1.22232 10.4122 1.43428 10.2559 1.59056C10.0996 1.74684 9.88768 1.83464 9.66667 1.83464H6.33333C6.11232 1.83464 5.90036 1.74684 5.74408 1.59056C5.5878 1.43428 5.5 1.22232 5.5 1.0013C5.5 0.780288 5.5878 0.568327 5.74408 0.412046C5.90036 0.255766 6.11232 0.167969 6.33333 0.167969H9.66667Z" fill="#374151"/>
</svg>
