<svg width="12" height="17" viewBox="0 0 12 17" fill="none" xmlns="http://www.w3.org/2000/svg">
<path d="M9.2512 0.568442C9.34907 0.62518 9.42481 0.713432 9.46604 0.818779C9.50727 0.924127 9.51156 1.04034 9.4782 1.14844L7.6772 7.00044H11.0002C11.0979 7.0004 11.1934 7.02896 11.275 7.08259C11.3566 7.13622 11.4207 7.21258 11.4594 7.30223C11.4981 7.39189 11.5098 7.49092 11.4928 7.58709C11.4759 7.68327 11.4312 7.77239 11.3642 7.84344L3.3642 16.3434C3.28679 16.4258 3.18379 16.4794 3.07197 16.4957C2.96016 16.512 2.84613 16.4899 2.74847 16.4331C2.65081 16.3762 2.57528 16.288 2.53419 16.1827C2.4931 16.0775 2.48887 15.9614 2.5222 15.8534L4.3232 10.0004H1.0002C0.902544 10.0005 0.807016 9.97192 0.725405 9.91829C0.643795 9.86466 0.579677 9.7883 0.540965 9.69865C0.502253 9.609 0.490642 9.50997 0.507566 9.41379C0.52449 9.31761 0.569208 9.2285 0.636199 9.15744L8.6362 0.657442C8.71351 0.575241 8.81636 0.52161 8.92802 0.50527C9.03967 0.48893 9.15357 0.510842 9.2512 0.567442V0.568442ZM2.1572 9.00044H5.0002C5.07845 9.00043 5.15561 9.01878 5.22547 9.05402C5.29533 9.08925 5.35595 9.1404 5.40245 9.20333C5.44895 9.26627 5.48002 9.33924 5.49318 9.41637C5.50633 9.49351 5.5012 9.57265 5.4782 9.64744L4.1102 14.0904L9.8422 8.00044H7.0002C6.92195 8.00046 6.84479 7.98211 6.77493 7.94687C6.70506 7.91163 6.64445 7.86049 6.59795 7.79755C6.55145 7.73461 6.52038 7.66164 6.50722 7.58451C6.49406 7.50738 6.49919 7.42823 6.5222 7.35344L7.8902 2.91044L2.1572 9.00044Z" fill="#4B5563"/>
</svg>
