<svg width="14" height="14" viewBox="0 0 14 14" fill="none" xmlns="http://www.w3.org/2000/svg">
<path d="M1.16626 8.43396C1.02181 8.33396 0.935812 8.19796 0.908256 8.02596C0.880701 7.85396 0.911145 7.68996 0.999589 7.53396L3.03292 4.26729C3.27737 3.8784 3.6247 3.67018 4.07492 3.64262C4.52515 3.61507 4.89448 3.77329 5.18292 4.11729L5.99959 5.06729L7.58292 2.50062C7.83848 2.0784 8.20803 1.86462 8.69159 1.85929C9.17515 1.85396 9.55003 2.05662 9.81626 2.46729L10.6663 3.73396L12.5329 0.76729C12.6329 0.600624 12.7803 0.497957 12.9749 0.45929C13.1696 0.420624 13.3445 0.462179 13.4996 0.583957C13.644 0.683957 13.7303 0.820179 13.7583 0.992624C13.7863 1.16507 13.7556 1.32885 13.6663 1.48396L11.7996 4.45062C11.544 4.86173 11.1747 5.06729 10.6916 5.06729C10.2085 5.06729 9.83337 4.86729 9.56626 4.46729L8.71626 3.20062L7.13292 5.76729C6.89959 6.15618 6.55803 6.36729 6.10826 6.40062C5.65848 6.43396 5.28892 6.2784 4.99959 5.93396L4.16626 4.96729L2.13292 8.25062C2.03292 8.41729 1.88559 8.52018 1.69092 8.55929C1.49626 8.5984 1.32137 8.55662 1.16626 8.43396ZM9.66626 11.5006C10.1329 11.5006 10.5274 11.3395 10.8496 11.0173C11.1718 10.6951 11.3329 10.3006 11.3329 9.83396C11.3329 9.36729 11.1718 8.97285 10.8496 8.65062C10.5274 8.3284 10.1329 8.16729 9.66626 8.16729C9.19959 8.16729 8.80515 8.3284 8.48292 8.65062C8.1607 8.97285 7.99959 9.36729 7.99959 9.83396C7.99959 10.3006 8.1607 10.6951 8.48292 11.0173C8.80515 11.3395 9.19959 11.5006 9.66626 11.5006ZM9.66626 12.834C8.83292 12.834 8.12448 12.5424 7.54092 11.9593C6.95737 11.3762 6.66581 10.6677 6.66626 9.83396C6.6667 9.00018 6.95848 8.29196 7.54159 7.70929C8.1247 7.12662 8.83292 6.83485 9.66626 6.83396C10.4996 6.83307 11.208 7.12485 11.7916 7.70929C12.3751 8.29374 12.6667 9.00196 12.6663 9.83396C12.6663 10.1228 12.6274 10.4035 12.5496 10.676C12.4718 10.9484 12.3551 11.2011 12.1996 11.434L13.5329 12.7673C13.6551 12.8895 13.7163 13.0451 13.7163 13.234C13.7163 13.4228 13.6551 13.5784 13.5329 13.7006C13.4107 13.8228 13.2551 13.884 13.0663 13.884C12.8774 13.884 12.7218 13.8228 12.5996 13.7006L11.2663 12.3673C11.0329 12.5228 10.7803 12.6395 10.5083 12.7173C10.2363 12.7951 9.95559 12.834 9.66626 12.834Z" fill="#111928"/>
</svg>
