<svg width="28" height="12" viewBox="0 0 28 12" fill="none" xmlns="http://www.w3.org/2000/svg">
<path d="M3.61958 3.17082C3.73932 2.8023 4.26068 2.8023 4.38042 3.17082L4.80825 4.48754C4.8618 4.65235 5.01538 4.76393 5.18867 4.76393H6.57315C6.96064 4.76393 7.12175 5.25978 6.80827 5.48754L5.6882 6.30132C5.548 6.40317 5.48934 6.58372 5.54289 6.74853L5.97072 8.06525C6.09046 8.43377 5.66867 8.74022 5.35518 8.51246L4.23511 7.69868C4.09492 7.59683 3.90508 7.59683 3.76489 7.69868L2.64482 8.51246C2.33133 8.74022 1.90954 8.43377 2.02928 8.06525L2.45711 6.74853C2.51066 6.58372 2.452 6.40317 2.3118 6.30132L1.19173 5.48754C0.878247 5.25978 1.03936 4.76393 1.42685 4.76393H2.81133C2.98462 4.76393 3.1382 4.65235 3.19175 4.48754L3.61958 3.17082Z" stroke="black"/>
<path d="M13.4278 1.81548C13.6041 1.25598 14.3959 1.25598 14.5722 1.81548L15.1855 3.76105C15.2648 4.01268 15.4992 4.18298 15.763 4.18065L17.8029 4.16267C18.3895 4.1575 18.6342 4.91053 18.1565 5.25115L16.4957 6.4356C16.2809 6.58879 16.1914 6.86433 16.2751 7.11453L16.9226 9.04899C17.1087 9.6053 16.4682 10.0707 15.9966 9.72171L14.3569 8.50817C14.1449 8.35121 13.8551 8.35121 13.6431 8.50817L12.0034 9.7217C11.5318 10.0707 10.8913 9.6053 11.0774 9.04899L11.7249 7.11453C11.8086 6.86434 11.7191 6.58879 11.5043 6.4356L9.84345 5.25115C9.36583 4.91053 9.6105 4.1575 10.1971 4.16267L12.237 4.18065C12.5008 4.18298 12.7352 4.01268 12.8145 3.76105L13.4278 1.81548Z" stroke="black"/>
<path d="M23.6196 3.17082C23.7393 2.8023 24.2607 2.8023 24.3804 3.17082L24.8083 4.48754C24.8618 4.65235 25.0154 4.76393 25.1887 4.76393H26.5732C26.9606 4.76393 27.1218 5.25978 26.8083 5.48754L25.6882 6.30132C25.548 6.40317 25.4893 6.58372 25.5429 6.74853L25.9707 8.06525C26.0905 8.43377 25.6687 8.74022 25.3552 8.51246L24.2351 7.69868C24.0949 7.59683 23.9051 7.59683 23.7649 7.69868L22.6448 8.51246C22.3313 8.74022 21.9095 8.43377 22.0293 8.06525L22.4571 6.74853C22.5107 6.58372 22.452 6.40317 22.3118 6.30132L21.1917 5.48754C20.8782 5.25978 21.0394 4.76393 21.4268 4.76393H22.8113C22.9846 4.76393 23.1382 4.65235 23.1917 4.48754L23.6196 3.17082Z" stroke="black"/>
</svg>
