<svg width="14" height="16" viewBox="0 0 14 16" fill="none" xmlns="http://www.w3.org/2000/svg">
<path d="M6.52832 2.51953V0.885742H7.46484V2.51953H6.52832ZM6.52832 5.02148V3.20996H7.46484V5.02148H6.52832ZM6.52832 7.3252V5.71875H7.46484V7.3252H6.52832ZM5.3252 9.12988L4.9082 8.28906L6.36426 7.55762L6.78809 8.39844L5.3252 9.12988ZM3.08301 10.2441L2.66602 9.40332L4.2793 8.59668L4.69629 9.4375L3.08301 10.2441ZM1.01855 11.2695L0.594727 10.4287L2.03711 9.7041L2.46094 10.5449L1.01855 11.2695ZM7.20508 8.39844L7.62891 7.55762L9.08496 8.28906L8.66797 9.12988L7.20508 8.39844ZM9.29688 9.4375L9.71387 8.59668L11.334 9.40332L10.917 10.2441L9.29688 9.4375ZM11.5322 10.5449L11.9629 9.7041L13.3984 10.4287L12.9746 11.2695L11.5322 10.5449ZM1.05273 11.8779C0.742839 11.7002 0.505859 11.4951 0.341797 11.2627C0.177734 11.0303 0.0957031 10.6702 0.0957031 10.1826V4.76855C0.0957031 4.41309 0.161784 4.11914 0.293945 3.88672C0.430664 3.64974 0.644857 3.44922 0.936523 3.28516L5.76953 0.537109C6.18424 0.30013 6.5944 0.181641 7 0.181641C7.4056 0.181641 7.81348 0.30013 8.22363 0.537109L13.0635 3.28516C13.3506 3.44922 13.5602 3.64974 13.6924 3.88672C13.8291 4.11914 13.8975 4.41309 13.8975 4.76855V10.1826C13.8975 10.6702 13.8154 11.0303 13.6514 11.2627C13.4919 11.4951 13.2549 11.7002 12.9404 11.8779L7.56738 14.9268C7.18913 15.141 6.81087 15.141 6.43262 14.9268L1.05273 11.8779ZM1.66797 10.9756L6.45996 13.7031V8.0293L1.13477 4.9873V10.1484C1.13477 10.3353 1.1735 10.4925 1.25098 10.6201C1.32845 10.7477 1.46745 10.8662 1.66797 10.9756ZM12.332 10.9756C12.528 10.8662 12.6647 10.7477 12.7422 10.6201C12.8197 10.4925 12.8584 10.3353 12.8584 10.1484V4.9873L7.5332 8.0293V13.7031L12.332 10.9756ZM7 7.07227L12.2773 4.08496L7.77246 1.51465C7.26204 1.21842 6.74707 1.21842 6.22754 1.51465L1.72266 4.08496L7 7.07227Z" fill="black"/>
</svg>
