<svg width="16" height="15" viewBox="0 0 16 15" fill="none" xmlns="http://www.w3.org/2000/svg">
<path d="M7.08873 1.51652C7.44314 0.732259 8.55686 0.73226 8.91127 1.51652L10.2728 4.52934C10.4183 4.85129 10.7228 5.07258 11.074 5.11146L14.3601 5.47532C15.2155 5.57003 15.5596 6.62924 14.9233 7.20866L12.4786 9.43454C12.2174 9.6724 12.1011 10.0304 12.1726 10.3764L12.842 13.6141C13.0163 14.4569 12.1153 15.1115 11.3676 14.6854L8.49518 13.0482C8.18824 12.8733 7.81176 12.8733 7.50482 13.0482L4.63244 14.6854C3.88475 15.1116 2.98373 14.4569 3.15798 13.6141L3.82739 10.3764C3.89892 10.0304 3.78259 9.6724 3.52135 9.43454L1.07671 7.20866C0.44036 6.62924 0.78452 5.57003 1.63991 5.47532L4.92601 5.11146C5.27716 5.07258 5.58173 4.85129 5.72722 4.52934L7.08873 1.51652Z" fill="black"/>
</svg>
