<svg width="14" height="14" viewBox="0 0 14 14" fill="none" xmlns="http://www.w3.org/2000/svg">
<path d="M0.211914 4.62988C0.211914 4.02376 0.307617 3.47005 0.499023 2.96875C0.694987 2.46289 0.968424 2.02539 1.31934 1.65625C1.67025 1.28711 2.0804 1.00228 2.5498 0.801758C3.02376 0.601237 3.53646 0.500977 4.08789 0.500977C4.72135 0.500977 5.28874 0.639974 5.79004 0.917969C6.29134 1.19596 6.69466 1.5651 7 2.02539C7.3099 1.5651 7.71322 1.19596 8.20996 0.917969C8.71126 0.639974 9.27865 0.500977 9.91211 0.500977C10.4681 0.500977 10.9808 0.601237 11.4502 0.801758C11.9242 1.00228 12.3343 1.28711 12.6807 1.65625C13.0316 2.02539 13.3027 2.46289 13.4941 2.96875C13.6901 3.47005 13.7881 4.02376 13.7881 4.62988C13.7881 5.60059 13.5306 6.56217 13.0156 7.51465C12.5052 8.46257 11.7783 9.3877 10.835 10.29C9.89616 11.1878 8.78418 12.0469 7.49902 12.8672C7.42611 12.9128 7.3418 12.9538 7.24609 12.9902C7.15495 13.0312 7.07292 13.0518 7 13.0518C6.93164 13.0518 6.84961 13.0312 6.75391 12.9902C6.66276 12.9538 6.58073 12.9128 6.50781 12.8672C5.22266 12.0469 4.1084 11.1878 3.16504 10.29C2.22168 9.3877 1.49251 8.46257 0.977539 7.51465C0.467122 6.56217 0.211914 5.60059 0.211914 4.62988ZM1.3125 4.62988C1.3125 5.26335 1.46517 5.90592 1.77051 6.55762C2.07585 7.20475 2.49056 7.84049 3.01465 8.46484C3.53874 9.08919 4.13118 9.6862 4.79199 10.2559C5.45736 10.821 6.14779 11.3405 6.86328 11.8145C6.9362 11.8691 6.98177 11.8965 7 11.8965C7.01823 11.8965 7.06608 11.8691 7.14355 11.8145C7.85905 11.3405 8.5472 10.821 9.20801 10.2559C9.87337 9.6862 10.4658 9.08919 10.9854 8.46484C11.5094 7.84049 11.9242 7.20475 12.2295 6.55762C12.5348 5.90592 12.6875 5.26335 12.6875 4.62988C12.6875 4.02376 12.5667 3.49512 12.3252 3.04395C12.0882 2.58822 11.7601 2.23503 11.3408 1.98438C10.9261 1.72917 10.4544 1.60156 9.92578 1.60156C9.4974 1.60156 9.12826 1.67904 8.81836 1.83398C8.51302 1.98438 8.2487 2.17578 8.02539 2.4082C7.80664 2.63607 7.61979 2.86165 7.46484 3.08496C7.36458 3.21712 7.28255 3.30827 7.21875 3.3584C7.15495 3.40853 7.08203 3.43359 7 3.43359C6.91797 3.43359 6.84277 3.41081 6.77441 3.36523C6.71061 3.3151 6.63086 3.22168 6.53516 3.08496C6.38932 2.8571 6.20703 2.62923 5.98828 2.40137C5.76953 2.1735 5.50293 1.98438 5.18848 1.83398C4.87402 1.67904 4.5026 1.60156 4.07422 1.60156C3.54557 1.60156 3.07161 1.72917 2.65234 1.98438C2.23763 2.23503 1.90951 2.58822 1.66797 3.04395C1.43099 3.49512 1.3125 4.02376 1.3125 4.62988Z" fill="black"/>
</svg>
