<svg width="14" height="10" viewBox="0 0 14 10" fill="none" xmlns="http://www.w3.org/2000/svg">
<path d="M0.5 0.5V5.5H13.5V4.5H7.5V3.5H13.5V2.5H7.5V1.5H13.5V0.5H0.5ZM1.5 1C1.63261 1 1.75979 1.05268 1.85355 1.14645C1.94732 1.24021 2 1.36739 2 1.5C2 1.63261 1.94732 1.75979 1.85355 1.85355C1.75979 1.94732 1.63261 2 1.5 2C1.36739 2 1.24021 1.94732 1.14645 1.85355C1.05268 1.75979 1 1.63261 1 1.5C1 1.36739 1.05268 1.24021 1.14645 1.14645C1.24021 1.05268 1.36739 1 1.5 1ZM3.5 1C3.63261 1 3.75979 1.05268 3.85355 1.14645C3.94732 1.24021 4 1.36739 4 1.5C4 1.63261 3.94732 1.75979 3.85355 1.85355C3.75979 1.94732 3.63261 2 3.5 2C3.36739 2 3.24021 1.94732 3.14645 1.85355C3.05268 1.75979 3 1.63261 3 1.5C3 1.36739 3.05268 1.24021 3.14645 1.14645C3.24021 1.05268 3.36739 1 3.5 1ZM5.5 1C5.63261 1 5.75979 1.05268 5.85355 1.14645C5.94732 1.24021 6 1.36739 6 1.5C6 1.63261 5.94732 1.75979 5.85355 1.85355C5.75979 1.94732 5.63261 2 5.5 2C5.36739 2 5.24021 1.94732 5.14645 1.85355C5.05268 1.75979 5 1.63261 5 1.5C5 1.36739 5.05268 1.24021 5.14645 1.14645C5.24021 1.05268 5.36739 1 5.5 1ZM2.5 2.5C2.63261 2.5 2.75979 2.55268 2.85355 2.64645C2.94732 2.74021 3 2.86739 3 3C3 3.13261 2.94732 3.25979 2.85355 3.35355C2.75979 3.44732 2.63261 3.5 2.5 3.5C2.36739 3.5 2.24021 3.44732 2.14645 3.35355C2.05268 3.25979 2 3.13261 2 3C2 2.86739 2.05268 2.74021 2.14645 2.64645C2.24021 2.55268 2.36739 2.5 2.5 2.5ZM4.5 2.5C4.63261 2.5 4.75979 2.55268 4.85355 2.64645C4.94732 2.74021 5 2.86739 5 3C5 3.13261 4.94732 3.25979 4.85355 3.35355C4.75979 3.44732 4.63261 3.5 4.5 3.5C4.36739 3.5 4.24021 3.44732 4.14645 3.35355C4.05268 3.25979 4 3.13261 4 3C4 2.86739 4.05268 2.74021 4.14645 2.64645C4.24021 2.55268 4.36739 2.5 4.5 2.5ZM6.5 2.5C6.63261 2.5 6.75979 2.55268 6.85355 2.64645C6.94732 2.74021 7 2.86739 7 3C7 3.13261 6.94732 3.25979 6.85355 3.35355C6.75979 3.44732 6.63261 3.5 6.5 3.5C6.36739 3.5 6.24021 3.44732 6.14645 3.35355C6.05268 3.25979 6 3.13261 6 3C6 2.86739 6.05268 2.74021 6.14645 2.64645C6.24021 2.55268 6.36739 2.5 6.5 2.5ZM1.5 4C1.63261 4 1.75979 4.05268 1.85355 4.14645C1.94732 4.24021 2 4.36739 2 4.5C2 4.63261 1.94732 4.75979 1.85355 4.85355C1.75979 4.94732 1.63261 5 1.5 5C1.36739 5 1.24021 4.94732 1.14645 4.85355C1.05268 4.75979 1 4.63261 1 4.5C1 4.36739 1.05268 4.24021 1.14645 4.14645C1.24021 4.05268 1.36739 4 1.5 4ZM3.5 4C3.63261 4 3.75979 4.05268 3.85355 4.14645C3.94732 4.24021 4 4.36739 4 4.5C4 4.63261 3.94732 4.75979 3.85355 4.85355C3.75979 4.94732 3.63261 5 3.5 5C3.36739 5 3.24021 4.94732 3.14645 4.85355C3.05268 4.75979 3 4.63261 3 4.5C3 4.36739 3.05268 4.24021 3.14645 4.14645C3.24021 4.05268 3.36739 4 3.5 4ZM5.5 4C5.63261 4 5.75979 4.05268 5.85355 4.14645C5.94732 4.24021 6 4.36739 6 4.5C6 4.63261 5.94732 4.75979 5.85355 4.85355C5.75979 4.94732 5.63261 5 5.5 5C5.36739 5 5.24021 4.94732 5.14645 4.85355C5.05268 4.75979 5 4.63261 5 4.5C5 4.36739 5.05268 4.24021 5.14645 4.14645C5.24021 4.05268 5.36739 4 5.5 4ZM0.5 6.5V7.5H13.5V6.5H0.5ZM0.5 8.5V9.5H13.5V8.5H0.5Z" fill="black"/>
</svg>
