<svg width="18" height="19" viewBox="0 0 18 19" fill="none" xmlns="http://www.w3.org/2000/svg">
<path fill-rule="evenodd" clip-rule="evenodd" d="M14.5806 0.836377C14.0746 0.552211 13.5356 0.524711 12.9663 0.595294C12.4255 0.663127 11.7664 0.833627 10.9753 1.03988L9.12457 1.52021C8.33349 1.72646 7.67532 1.89696 7.17207 2.10138C6.64132 2.31588 6.18299 2.60371 5.88599 3.10329C5.58716 3.60563 5.55782 4.14279 5.63207 4.70379C5.70266 5.23271 5.87957 5.87438 6.09041 6.63888L6.58816 8.43921C6.79899 9.20463 6.97682 9.84538 7.18857 10.3367C7.41316 10.8592 7.71291 11.3038 8.22257 11.5898C8.72857 11.873 9.26757 11.9015 9.83774 11.83C10.3786 11.763 11.0377 11.5916 11.8287 11.3854L13.6795 10.905C14.4706 10.6997 15.1287 10.5283 15.632 10.3239C16.1627 10.1094 16.6211 9.82154 16.9181 9.32196C17.2169 8.81963 17.2462 8.28246 17.172 7.72238C17.1014 7.19346 16.9245 6.55088 16.7137 5.78638L16.2159 3.98604C16.0051 3.22154 15.8272 2.57988 15.6155 2.08854C15.3909 1.56604 15.0893 1.12146 14.5806 0.836377ZM11.2769 2.38188C12.1248 2.16188 12.6959 2.01521 13.1377 1.96021C13.5603 1.90704 13.7629 1.95379 13.9105 2.03629C14.0544 2.11696 14.1928 2.25721 14.3532 2.63213C14.5228 3.02629 14.6768 3.57538 14.9042 4.39854L15.3753 6.10629C15.6036 6.92946 15.7539 7.47946 15.8098 7.90296C15.863 8.30538 15.8153 8.48779 15.7365 8.61888C15.6567 8.75363 15.5119 8.89021 15.1177 9.04971C14.7071 9.21563 14.1369 9.36596 13.289 9.58596L11.529 10.0434C10.6811 10.2634 10.11 10.41 9.66816 10.465C9.24466 10.5191 9.04299 10.4724 8.89541 10.3899C8.75149 10.3092 8.61307 10.168 8.45266 9.79404C8.28307 9.39988 8.12907 8.84988 7.90174 8.02671L7.43057 6.31988C7.20232 5.49488 7.05199 4.94579 6.99607 4.52321C6.94291 4.11988 6.99057 3.93838 7.06941 3.80638C7.14916 3.67163 7.29399 3.53504 7.68816 3.37554C8.09882 3.20963 8.66899 3.06021 9.51691 2.83929L11.2769 2.38188Z" fill="black"/>
<path fill-rule="evenodd" clip-rule="evenodd" d="M0.933235 2.8313C0.759569 2.78872 0.576147 2.81548 0.421884 2.9059C0.26762 2.99632 0.154653 3.14328 0.10695 3.31561C0.0592466 3.48794 0.0805601 3.67207 0.166369 3.82895C0.252177 3.98582 0.395729 4.1031 0.566569 4.15588L2.12765 4.58947C2.51815 4.69763 2.80874 4.9928 2.90774 5.35122L4.69707 11.8256C4.62801 11.8391 4.55926 11.855 4.49082 11.8733C2.67857 12.3435 1.57124 14.1668 2.06807 15.968C2.56307 17.7601 4.4459 18.7932 6.25082 18.3239C7.83115 17.9141 8.87524 16.4759 8.78724 14.9212L16.5056 12.9155C16.593 12.8929 16.675 12.8532 16.7471 12.7988C16.8191 12.7444 16.8798 12.6763 16.9255 12.5984C16.9713 12.5206 17.0013 12.4345 17.0137 12.3451C17.0262 12.2557 17.021 12.1647 16.9983 12.0773C16.9756 11.9899 16.9359 11.9078 16.8815 11.8357C16.8271 11.7637 16.759 11.703 16.6812 11.6573C16.6033 11.6115 16.5172 11.5816 16.4278 11.5691C16.3384 11.5566 16.2474 11.5619 16.16 11.5845L8.42515 13.5948C8.1937 13.1526 7.86802 12.7667 7.47109 12.4642C7.07417 12.1616 6.61568 11.9499 6.12799 11.844L4.23324 4.98455C4.11669 4.57204 3.89538 4.1967 3.59082 3.89504C3.28627 3.59338 2.90884 3.37566 2.49524 3.26305L0.933235 2.8313ZM4.83732 13.2034C5.94832 12.9156 7.06299 13.56 7.34899 14.5958C7.63315 15.6225 7.00982 16.7069 5.90615 16.9938C4.79515 17.2825 3.68049 16.6372 3.39449 15.6014C3.11032 14.5747 3.73365 13.4903 4.83732 13.2034Z" fill="black"/>
</svg>
