<svg width="17" height="15" viewBox="0 0 17 15" fill="none" xmlns="http://www.w3.org/2000/svg">
<path d="M3.71484 14.7285C3.47786 14.7285 3.29785 14.6715 3.1748 14.5576C3.05176 14.4482 2.98796 14.3092 2.9834 14.1406C2.97884 13.9766 3.03581 13.8148 3.1543 13.6553C3.25911 13.5231 3.38444 13.3522 3.53027 13.1426C3.67611 12.9375 3.82194 12.721 3.96777 12.4932C4.11361 12.2653 4.23893 12.0511 4.34375 11.8506C3.6237 11.5179 2.99251 11.085 2.4502 10.5518C1.91243 10.0186 1.49316 9.41699 1.19238 8.74707C0.896159 8.07715 0.748047 7.36849 0.748047 6.62109C0.748047 5.75977 0.946289 4.95312 1.34277 4.20117C1.74382 3.44922 2.29753 2.79069 3.00391 2.22559C3.71484 1.65592 4.53971 1.21159 5.47852 0.892578C6.41732 0.56901 7.42448 0.407227 8.5 0.407227C9.57552 0.407227 10.5827 0.56901 11.5215 0.892578C12.4603 1.21159 13.2829 1.65592 13.9893 2.22559C14.7002 2.79069 15.2539 3.44922 15.6504 4.20117C16.0514 4.95312 16.252 5.75977 16.252 6.62109C16.252 7.33659 16.1152 8.01335 15.8418 8.65137C15.5729 9.28483 15.1878 9.86133 14.6865 10.3809C14.1898 10.9004 13.5951 11.347 12.9023 11.7207C12.2142 12.0898 11.4486 12.3701 10.6055 12.5615C9.76237 12.7529 8.86458 12.835 7.91211 12.8076C7.45182 13.1403 6.95508 13.4525 6.42188 13.7441C5.88867 14.0358 5.38053 14.2728 4.89746 14.4551C4.41439 14.6374 4.02018 14.7285 3.71484 14.7285ZM4.43262 13.5938C4.6377 13.5072 4.89746 13.375 5.21191 13.1973C5.52637 13.0195 5.85221 12.8213 6.18945 12.6025C6.52669 12.3883 6.83431 12.181 7.1123 11.9805C7.23991 11.8802 7.36296 11.8073 7.48145 11.7617C7.60449 11.7116 7.73665 11.6865 7.87793 11.6865C8.01465 11.6911 8.13542 11.6956 8.24023 11.7002C8.34505 11.7002 8.43164 11.7002 8.5 11.7002C9.42057 11.7002 10.2819 11.568 11.084 11.3037C11.8861 11.0394 12.5879 10.6748 13.1895 10.21C13.7956 9.74512 14.2695 9.20508 14.6113 8.58984C14.9531 7.97461 15.124 7.31836 15.124 6.62109C15.124 5.91927 14.9531 5.26302 14.6113 4.65234C14.2695 4.03711 13.7956 3.49707 13.1895 3.03223C12.5879 2.56283 11.8861 2.19596 11.084 1.93164C10.2819 1.66732 9.42057 1.53516 8.5 1.53516C7.57943 1.53516 6.7181 1.66732 5.91602 1.93164C5.11393 2.19596 4.40983 2.56283 3.80371 3.03223C3.20215 3.49707 2.73047 4.03711 2.38867 4.65234C2.05143 5.26302 1.88281 5.91927 1.88281 6.62109C1.88281 7.22721 2.01497 7.80371 2.2793 8.35059C2.54362 8.89746 2.92643 9.39876 3.42773 9.85449C3.93359 10.3057 4.54427 10.6976 5.25977 11.0303C5.47852 11.1351 5.60612 11.2627 5.64258 11.4131C5.67904 11.5635 5.64941 11.7275 5.55371 11.9053C5.43522 12.124 5.25977 12.3883 5.02734 12.6982C4.79492 13.0127 4.58301 13.2884 4.3916 13.5254C4.37337 13.5482 4.36882 13.5664 4.37793 13.5801C4.38704 13.5983 4.40527 13.6029 4.43262 13.5938Z" fill="black"/>
</svg>
