<svg width="14" height="16" viewBox="0 0 14 16" fill="none" xmlns="http://www.w3.org/2000/svg">
<path d="M3.07617 15.7764C2.36068 15.7764 1.82292 15.5986 1.46289 15.2432C1.10742 14.8923 0.929688 14.3636 0.929688 13.6572V6.83496C0.929688 6.12858 1.10742 5.59993 1.46289 5.24902C1.82292 4.89355 2.36068 4.71582 3.07617 4.71582H5.13379V5.81641H3.08984C2.74805 5.81641 2.486 5.90755 2.30371 6.08984C2.12142 6.27214 2.03027 6.54102 2.03027 6.89648V13.5957C2.03027 13.9512 2.12142 14.2201 2.30371 14.4023C2.486 14.5846 2.74805 14.6758 3.08984 14.6758H10.8965C11.2337 14.6758 11.4958 14.5846 11.6826 14.4023C11.8695 14.2201 11.9629 13.9512 11.9629 13.5957V6.89648C11.9629 6.54102 11.8695 6.27214 11.6826 6.08984C11.4958 5.90755 11.2337 5.81641 10.8965 5.81641H8.85938V4.71582H10.917C11.6325 4.71582 12.168 4.89355 12.5234 5.24902C12.8835 5.60449 13.0635 6.13314 13.0635 6.83496V13.6572C13.0635 14.359 12.8835 14.8877 12.5234 15.2432C12.168 15.5986 11.6325 15.7764 10.917 15.7764H3.07617ZM6.99316 10.4238C6.84733 10.4238 6.71973 10.3714 6.61035 10.2666C6.50553 10.1618 6.45312 10.0365 6.45312 9.89062V2.87012L6.49414 1.84473L6.0293 2.33008L4.99707 3.4375C4.90137 3.54688 4.77604 3.60156 4.62109 3.60156C4.47526 3.60156 4.35677 3.55599 4.26562 3.46484C4.17448 3.3737 4.12891 3.25749 4.12891 3.11621C4.12891 2.98861 4.18132 2.87012 4.28613 2.76074L6.59668 0.532227C6.6696 0.463867 6.73568 0.416016 6.79492 0.388672C6.85872 0.361328 6.9248 0.347656 6.99316 0.347656C7.06608 0.347656 7.13216 0.361328 7.19141 0.388672C7.25521 0.416016 7.32129 0.463867 7.38965 0.532227L9.7002 2.76074C9.80957 2.87012 9.86426 2.98861 9.86426 3.11621C9.86426 3.25749 9.81641 3.3737 9.7207 3.46484C9.625 3.55599 9.50651 3.60156 9.36523 3.60156C9.21484 3.60156 9.0918 3.54688 8.99609 3.4375L7.95703 2.33008L7.49902 1.84473L7.54004 2.87012V9.89062C7.54004 10.0365 7.48535 10.1618 7.37598 10.2666C7.27116 10.3714 7.14355 10.4238 6.99316 10.4238Z" fill="black"/>
</svg>
