<svg width="90" height="90" viewBox="0 0 90 90" fill="none" xmlns="http://www.w3.org/2000/svg">
<g clip-path="url(#clip0_5281_45353)">
<path d="M45.8107 7.4762L56.0266 0.498388C56.6666 0.0612202 57.5458 0.296767 57.8814 0.995498L63.2397 12.1465C63.35 12.3762 63.5271 12.5672 63.7477 12.6946C63.9684 12.822 64.2223 12.8798 64.4763 12.8606L76.8125 11.9254C77.5854 11.8669 78.229 12.5104 78.1704 13.2833L77.2353 25.6195C77.216 25.8735 77.2738 26.1275 77.4012 26.3481C77.5286 26.5687 77.7196 26.7458 77.9493 26.8561L89.1003 32.2144C89.799 32.5502 90.0346 33.4292 89.5974 34.0693L82.6196 44.2851C82.4759 44.4955 82.399 44.7443 82.399 44.9991C82.399 45.2538 82.4759 45.5027 82.6196 45.713L89.5974 55.9289C90.0346 56.5689 89.799 57.4482 89.1003 57.7837L77.9493 63.1421C77.7196 63.2524 77.5286 63.4294 77.4012 63.6501C77.2738 63.8707 77.216 64.1247 77.2353 64.3787L78.1704 76.7149C78.229 77.4878 77.5854 78.1313 76.8125 78.0728L64.4763 77.1376C64.2223 77.1183 63.9684 77.1762 63.7477 77.3036C63.5271 77.431 63.35 77.622 63.2397 77.8516L57.8814 89.0027C57.5456 89.7014 56.6666 89.9369 56.0266 89.4998L45.8107 82.522C45.6003 82.3783 45.3515 82.3014 45.0967 82.3014C44.842 82.3014 44.5932 82.3783 44.3828 82.522L34.1669 89.4998C33.5269 89.9369 32.6476 89.7014 32.3121 89.0027L26.9537 77.8516C26.8434 77.622 26.6664 77.431 26.4457 77.3036C26.2251 77.1762 25.9712 77.1183 25.7171 77.1376L13.381 78.0728C12.6081 78.1313 11.9645 77.4878 12.0231 76.7149L12.9582 64.3787C12.9775 64.1247 12.9197 63.8707 12.7923 63.6501C12.6649 63.4294 12.4738 63.2524 12.2442 63.1421L1.09298 57.7837C0.394248 57.448 0.158701 56.5689 0.595869 55.9289L7.57368 45.713C7.71739 45.5027 7.79427 45.2538 7.79427 44.9991C7.79427 44.7443 7.71739 44.4955 7.57368 44.2851L0.596044 34.0691C0.158876 33.4291 0.394423 32.5498 1.09315 32.2142L12.2442 26.8559C12.4738 26.7456 12.6649 26.5685 12.7923 26.3479C12.9197 26.1273 12.9775 25.8733 12.9582 25.6193L12.0231 13.2831C11.9645 12.5102 12.6081 11.8667 13.381 11.9252L25.7171 12.8604C25.9712 12.8797 26.2251 12.8218 26.4457 12.6944C26.6664 12.567 26.8434 12.376 26.9537 12.1464L32.3121 0.995322C32.6478 0.296591 33.5269 0.0610444 34.1669 0.498212L44.3828 7.47602C44.5931 7.61976 44.8419 7.69667 45.0967 7.6967C45.3515 7.69673 45.6003 7.61988 45.8107 7.4762Z" fill="#FFC639"/>
<path d="M45.0964 79.1732C63.9705 79.1732 79.2709 63.8728 79.2709 44.9987C79.2709 26.1247 63.9705 10.8242 45.0964 10.8242C26.2223 10.8242 10.9219 26.1247 10.9219 44.9987C10.9219 63.8728 26.2223 79.1732 45.0964 79.1732Z" fill="#FFE564"/>
</g>
<defs>
<clipPath id="clip0_5281_45353">
<rect width="90" height="90" fill="white"/>
</clipPath>
</defs>
</svg>
