<svg width="12" height="23" viewBox="0 0 12 23" fill="none" xmlns="http://www.w3.org/2000/svg">
<path d="M3.246 6.11075C3.033 7.75275 4.35 9.27675 4.35 9.27675C4.35 9.27675 6.013 8.13875 6.226 6.49675C6.439 4.85375 5.122 3.32975 5.122 3.32975C5.122 3.32975 3.46 4.46975 3.246 6.11075ZM1.683 11.6297C2.379 13.1327 4.307 13.7227 4.307 13.7227C4.307 13.7227 5.107 11.8757 4.411 10.3727C3.715 8.86975 1.787 8.27875 1.787 8.27875C1.787 8.27875 0.987 10.1267 1.683 11.6297ZM2.504 16.9147C3.832 17.9077 5.81 17.5137 5.81 17.5137C5.81 17.5137 5.634 15.5087 4.306 14.5157C2.978 13.5227 1 13.9167 1 13.9167C1 13.9167 1.176 15.9217 2.504 16.9147ZM6.113 21.2127C7.618 21.9107 9.472 21.1177 9.472 21.1177C9.472 21.1177 8.885 19.1927 7.38 18.4937C5.875 17.7957 4.021 18.5897 4.021 18.5897C4.021 18.5897 4.608 20.5147 6.113 21.2127ZM7.781 2.46775C6.571 3.60075 6.617 5.61175 6.617 5.61175C6.617 5.61175 8.627 5.78775 9.837 4.65475C11.047 3.52175 11.001 1.50975 11.001 1.50975C11.001 1.50975 8.991 1.33475 7.781 2.46775Z" stroke="black" stroke-width="1.2" stroke-linecap="round" stroke-linejoin="round"/>
</svg>
