<svg width="22" height="23" viewBox="0 0 22 23" fill="none" xmlns="http://www.w3.org/2000/svg">
<path d="M9.25556 21.5C9.00296 21.5 8.77704 21.4241 8.57778 21.2722C8.37852 21.1204 8.24074 20.9178 8.16444 20.6644L7.46222 18.2044C7.36519 17.8911 7.21852 17.5911 7.02222 17.3044C6.82667 17.017 6.56481 16.7337 6.23667 16.4544C5.52185 15.8552 4.97037 15.1274 4.58222 14.2711C4.19407 13.4148 4 12.4911 4 11.5C4 10.5274 4.19407 9.61259 4.58222 8.75556C4.97037 7.89852 5.52222 7.16148 6.23778 6.54444C6.56519 6.24667 6.82667 5.95556 7.02222 5.67111C7.21778 5.38593 7.36407 5.09407 7.46111 4.79556L8.16444 2.33556C8.24148 2.08222 8.37926 1.87963 8.57778 1.72778C8.7763 1.57593 9.00222 1.5 9.25556 1.5H12.0778C12.3311 1.5 12.557 1.57593 12.7556 1.72778C12.9541 1.87963 13.0919 2.08222 13.1689 2.33556L13.8722 4.79556C13.9685 5.10889 14.1148 5.40889 14.3111 5.69556C14.5067 5.98296 14.7685 6.2663 15.0967 6.54556C15.8115 7.14481 16.363 7.87259 16.7511 8.72889C17.1393 9.58519 17.3333 10.5089 17.3333 11.5C17.3333 12.4733 17.1393 13.3881 16.7511 14.2444C16.363 15.1007 15.8111 15.8378 15.0956 16.4556C14.7681 16.7533 14.5067 17.0444 14.3111 17.3289C14.1156 17.6141 13.9693 17.9063 13.8722 18.2056L13.1689 20.6644C13.0919 20.9185 12.9541 21.1211 12.7556 21.2722C12.557 21.4233 12.3311 21.4993 12.0778 21.5H9.25556ZM10.6667 17.0556C12.2037 17.0556 13.5141 16.5137 14.5978 15.43C15.6815 14.3463 16.223 13.0363 16.2222 11.5C16.2215 9.9637 15.6796 8.6537 14.5967 7.57C13.5137 6.4863 12.2037 5.94444 10.6667 5.94444C9.12963 5.94444 7.81963 6.4863 6.73667 7.57C5.6537 8.6537 5.11185 9.9637 5.11111 11.5C5.11037 13.0363 5.65222 14.3467 6.73667 15.4311C7.82111 16.5156 9.13111 17.057 10.6667 17.0556ZM8.51222 5.19667C8.89741 5.07519 9.26482 4.98333 9.61445 4.92111C9.96408 4.85815 10.3148 4.82667 10.6667 4.82667C11.0185 4.82667 11.3693 4.85815 11.7189 4.92111C12.0685 4.98407 12.4356 5.07593 12.82 5.19667L12.0778 2.61111H9.25778L8.51222 5.19667ZM9.25667 20.3889H12.0767L12.8211 17.8033C12.4359 17.9248 12.0685 18.0122 11.7189 18.0656C11.3693 18.1189 11.0185 18.1452 10.6667 18.1444C10.3148 18.1437 9.96408 18.117 9.61445 18.0644C9.26482 18.0119 8.89778 17.9244 8.51333 17.8022L9.25667 20.3889Z" fill="black"/>
<g filter="url(#filter0_d_5281_43896)">
<path d="M2.5 15L10 9V14.5L19.5 6" stroke="black"/>
</g>
<path d="M19.2203 9.25642L19.7579 6.03759L16.5391 5.5" stroke="black"/>
<defs>
<filter id="filter0_d_5281_43896" x="2.1875" y="5.62695" width="17.6465" height="10.9912" filterUnits="userSpaceOnUse" color-interpolation-filters="sRGB">
<feFlood flood-opacity="0" result="BackgroundImageFix"/>
<feColorMatrix in="SourceAlpha" type="matrix" values="0 0 0 0 0 0 0 0 0 0 0 0 0 0 0 0 0 0 127 0" result="hardAlpha"/>
<feOffset dy="1"/>
<feComposite in2="hardAlpha" operator="out"/>
<feColorMatrix type="matrix" values="0 0 0 0 1 0 0 0 0 1 0 0 0 0 1 0 0 0 1 0"/>
<feBlend mode="normal" in2="BackgroundImageFix" result="effect1_dropShadow_5281_43896"/>
<feBlend mode="normal" in="SourceGraphic" in2="effect1_dropShadow_5281_43896" result="shape"/>
</filter>
</defs>
</svg>
