<svg width="14" height="15" viewBox="0 0 14 15" fill="none" xmlns="http://www.w3.org/2000/svg">
<path d="M0.321289 6.2793C0.321289 5.52734 0.462565 4.82324 0.745117 4.16699C1.02767 3.50618 1.4196 2.92513 1.9209 2.42383C2.4222 1.92253 3.00098 1.5306 3.65723 1.24805C4.31803 0.965495 5.02441 0.824219 5.77637 0.824219C6.52832 0.824219 7.23242 0.965495 7.88867 1.24805C8.54948 1.5306 9.13053 1.92253 9.63184 2.42383C10.1331 2.92513 10.5251 3.50618 10.8076 4.16699C11.0902 4.82324 11.2314 5.52734 11.2314 6.2793C11.2314 6.90365 11.1312 7.49609 10.9307 8.05664C10.7347 8.61719 10.4613 9.12533 10.1104 9.58105L13.4531 12.9443C13.526 13.0173 13.5807 13.1016 13.6172 13.1973C13.6582 13.293 13.6787 13.3955 13.6787 13.5049C13.6787 13.6553 13.6445 13.792 13.5762 13.915C13.5124 14.0381 13.4212 14.1338 13.3027 14.2021C13.1842 14.2751 13.0475 14.3115 12.8926 14.3115C12.7832 14.3115 12.6784 14.291 12.5781 14.25C12.4824 14.2135 12.3936 14.1566 12.3115 14.0791L8.94824 10.709C8.50163 11.028 8.00944 11.2786 7.47168 11.4609C6.93392 11.6432 6.36882 11.7344 5.77637 11.7344C5.02441 11.7344 4.31803 11.5931 3.65723 11.3105C3.00098 11.028 2.4222 10.6361 1.9209 10.1348C1.4196 9.63346 1.02767 9.05469 0.745117 8.39844C0.462565 7.73763 0.321289 7.03125 0.321289 6.2793ZM1.49023 6.2793C1.49023 6.87174 1.59961 7.42773 1.81836 7.94727C2.04167 8.46224 2.34928 8.91569 2.74121 9.30762C3.1377 9.69954 3.59342 10.0072 4.1084 10.2305C4.62793 10.4538 5.18392 10.5654 5.77637 10.5654C6.36882 10.5654 6.92253 10.4538 7.4375 10.2305C7.95703 10.0072 8.41276 9.69954 8.80469 9.30762C9.19661 8.91569 9.50423 8.46224 9.72754 7.94727C9.95085 7.42773 10.0625 6.87174 10.0625 6.2793C10.0625 5.68685 9.95085 5.13314 9.72754 4.61816C9.50423 4.09863 9.19661 3.6429 8.80469 3.25098C8.41276 2.85449 7.95703 2.54688 7.4375 2.32812C6.92253 2.10482 6.36882 1.99316 5.77637 1.99316C5.18392 1.99316 4.62793 2.10482 4.1084 2.32812C3.59342 2.54688 3.1377 2.85449 2.74121 3.25098C2.34928 3.6429 2.04167 4.09863 1.81836 4.61816C1.59961 5.13314 1.49023 5.68685 1.49023 6.2793ZM3.52051 6.2793C3.52051 6.13802 3.56836 6.01953 3.66406 5.92383C3.76432 5.82357 3.88281 5.77344 4.01953 5.77344H5.27734V4.52246C5.27734 4.38118 5.3252 4.2627 5.4209 4.16699C5.52116 4.06673 5.63965 4.0166 5.77637 4.0166C5.91764 4.0166 6.03613 4.06673 6.13184 4.16699C6.2321 4.2627 6.28223 4.38118 6.28223 4.52246V5.77344H7.5332C7.67448 5.77344 7.79297 5.82357 7.88867 5.92383C7.98438 6.01953 8.03223 6.13802 8.03223 6.2793C8.03223 6.42057 7.98438 6.53906 7.88867 6.63477C7.79297 6.73047 7.67448 6.77832 7.5332 6.77832H6.28223V8.0293C6.28223 8.17057 6.2321 8.29134 6.13184 8.3916C6.03613 8.4873 5.91764 8.53516 5.77637 8.53516C5.63965 8.53516 5.52116 8.4873 5.4209 8.3916C5.3252 8.29134 5.27734 8.17057 5.27734 8.0293V6.77832H4.01953C3.88281 6.77832 3.76432 6.73047 3.66406 6.63477C3.56836 6.53906 3.52051 6.42057 3.52051 6.2793Z" fill="black"/>
</svg>
