<svg width="20" height="19" viewBox="0 0 20 19" fill="none" xmlns="http://www.w3.org/2000/svg">
<path fill-rule="evenodd" clip-rule="evenodd" d="M3.93795 5.34749L4.54095 12.5195C4.58495 13.0715 5.03594 13.4855 5.58695 13.4855H5.59095H16.5019H16.5039C17.0249 13.4855 17.4699 13.0975 17.5439 12.5825L18.4939 6.02349C18.5159 5.86749 18.4769 5.71149 18.3819 5.58549C18.2879 5.45849 18.1499 5.37649 17.9939 5.35449C17.7849 5.36249 9.11195 5.35049 3.93795 5.34749ZM5.58495 14.9855C4.26795 14.9855 3.15295 13.9575 3.04595 12.6425L2.12995 1.74849L0.622945 1.48849C0.213945 1.41649 -0.0590549 1.02949 0.0109451 0.620487C0.082945 0.211487 0.477945 -0.054513 0.877945 0.00948704L2.95795 0.369487C3.29295 0.428487 3.54795 0.706487 3.57695 1.04649L3.81194 3.84749C18.0879 3.85349 18.1339 3.86049 18.2029 3.86849C18.7599 3.94949 19.2499 4.24049 19.5839 4.68849C19.9179 5.13549 20.0579 5.68649 19.9779 6.23849L19.0289 12.7965C18.8499 14.0445 17.7659 14.9855 16.5059 14.9855H16.5009H5.59295H5.58495Z" fill="white"/>
<path fill-rule="evenodd" clip-rule="evenodd" d="M14.8977 9.0437H12.1257C11.7107 9.0437 11.3757 8.7077 11.3757 8.2937C11.3757 7.8797 11.7107 7.5437 12.1257 7.5437H14.8977C15.3117 7.5437 15.6477 7.8797 15.6477 8.2937C15.6477 8.7077 15.3117 9.0437 14.8977 9.0437Z" fill="white"/>
<path fill-rule="evenodd" clip-rule="evenodd" d="M5.15486 17.7019C5.45586 17.7019 5.69886 17.9449 5.69886 18.2459C5.69886 18.5469 5.45586 18.7909 5.15486 18.7909C4.85286 18.7909 4.60986 18.5469 4.60986 18.2459C4.60986 17.9449 4.85286 17.7019 5.15486 17.7019Z" fill="white"/>
</svg>
