<svg width="32" height="32" viewBox="0 0 32 32" fill="none" xmlns="http://www.w3.org/2000/svg">
<path d="M12.8027 28.0347V18.336H9.09068C8.89796 18.336 8.71313 18.2595 8.57685 18.1232C8.44057 17.9869 8.36401 17.8021 8.36401 17.6093V13.7733C8.36401 13.5806 8.44057 13.3958 8.57685 13.2595C8.71313 13.1232 8.89796 13.0467 9.09068 13.0467H12.788V9.33335C12.6996 8.45275 12.805 7.56347 13.0969 6.72796C13.3888 5.89245 13.86 5.13097 14.4776 4.49702C15.0952 3.86307 15.844 3.37201 16.6716 3.05834C17.4992 2.74467 18.3854 2.61599 19.268 2.68135H22.3613C22.5559 2.68097 22.7428 2.75708 22.8817 2.89328C23.0207 3.02947 23.1005 3.21482 23.104 3.40935V6.65735C23.0998 6.85153 23.0197 7.03634 22.8809 7.17218C22.7421 7.30801 22.5556 7.38406 22.3613 7.38401H20.428C18.34 7.38401 17.9387 8.37335 17.9387 9.82801V13.0453H22.9027C23.0059 13.0419 23.1085 13.061 23.2036 13.1013C23.2986 13.1416 23.3837 13.2021 23.453 13.2786C23.5223 13.3551 23.5741 13.4458 23.6048 13.5444C23.6355 13.643 23.6443 13.747 23.6307 13.8493L23.1813 17.7C23.1588 17.8764 23.0725 18.0384 22.9385 18.1553C22.8046 18.2723 22.6325 18.3361 22.4547 18.3347H17.9693V28.0334C17.9719 28.2047 17.94 28.3748 17.8755 28.5336C17.811 28.6924 17.7154 28.8366 17.5941 28.9577C17.4729 29.0789 17.3286 29.1744 17.1697 29.2387C17.0108 29.303 16.8407 29.3347 16.6693 29.332H14.0867C13.9167 29.3326 13.7483 29.2992 13.5913 29.234C13.4343 29.1687 13.2919 29.0729 13.1723 28.952C13.0528 28.8311 12.9585 28.6876 12.8951 28.5299C12.8316 28.3721 12.8002 28.2047 12.8027 28.0347Z" fill="white"/>
</svg>
