<svg width="20" height="22" viewBox="0 0 20 22" fill="none" xmlns="http://www.w3.org/2000/svg">
<path d="M10 16C10.2652 16 10.5196 15.8946 10.7071 15.7071C10.8946 15.5196 11 15.2652 11 15C11 14.7348 10.8946 14.4804 10.7071 14.2929C10.5196 14.1054 10.2652 14 10 14C9.73478 14 9.48043 14.1054 9.29289 14.2929C9.10536 14.4804 9 14.7348 9 15C9 15.2652 9.10536 15.5196 9.29289 15.7071C9.48043 15.8946 9.73478 16 10 16Z" fill="#6B7280" stroke="#6B7280" stroke-linecap="round" stroke-linejoin="round"/>
<path d="M19 6.35223V15.6462C19.0001 15.7534 18.9714 15.8585 18.9171 15.9509C18.8627 16.0432 18.7847 16.1193 18.691 16.1712L10.291 20.8372C10.202 20.8866 10.1018 20.9125 10 20.9125C9.89818 20.9125 9.79804 20.8866 9.709 20.8372L1.309 16.1712C1.21532 16.1193 1.13725 16.0432 1.08292 15.9509C1.02858 15.8585 0.999948 15.7534 1 15.6462V6.35223C1.00013 6.24527 1.02884 6.1403 1.08317 6.04817C1.1375 5.95604 1.21547 5.8801 1.309 5.82823L9.709 1.16123C9.79804 1.11185 9.89818 1.08594 10 1.08594C10.1018 1.08594 10.202 1.11185 10.291 1.16123L18.691 5.82823C18.7845 5.8801 18.8625 5.95604 18.9168 6.04817C18.9712 6.1403 18.9999 6.24527 19 6.35223Z" stroke="#6B7280" stroke-linecap="round" stroke-linejoin="round"/>
<path d="M18.5 15.722L10.291 11.162C10.202 11.1126 10.1018 11.0867 10 11.0867C9.89818 11.0867 9.79804 11.1126 9.709 11.162L1.5 15.722M1.528 6.294L9.708 10.838C9.79716 10.8876 9.89749 10.9136 9.9995 10.9136C10.1015 10.9136 10.2018 10.8876 10.291 10.838L18.5 6.278M10 2V11M10 18.5V21" stroke="#6B7280" stroke-linecap="round" stroke-linejoin="round"/>
</svg>
