<svg width="12" height="19" viewBox="0 0 12 19" fill="none" xmlns="http://www.w3.org/2000/svg">
<path d="M3.962 18.5L2.842 14.566C2.00333 14.0733 1.32 13.3777 0.792 12.479C0.264 11.5803 0 10.5873 0 9.5C0 8.41267 0.264 7.41967 0.792 6.521C1.32 5.62233 2.00333 4.92667 2.842 4.434L3.962 0.5H8.039L9.158 4.435C9.99667 4.927 10.68 5.62233 11.208 6.521C11.736 7.41967 12 8.41267 12 9.5C12 10.5873 11.736 11.5803 11.208 12.479C10.68 13.3777 9.99667 14.0733 9.158 14.566L8.038 18.5H3.962ZM6 14.5C7.38333 14.5 8.56267 14.0123 9.538 13.037C10.5133 12.0617 11.0007 10.8827 11 9.5C10.9993 8.11733 10.5117 6.93833 9.537 5.963C8.56233 4.98767 7.38333 4.5 6 4.5C4.61667 4.5 3.43767 4.98767 2.463 5.963C1.48833 6.93833 1.00067 8.11733 1 9.5C0.999333 10.8827 1.487 12.062 2.463 13.038C3.439 14.014 4.618 14.5013 6 14.5ZM4.061 3.827C4.40767 3.71767 4.73833 3.635 5.053 3.579C5.36767 3.52233 5.68333 3.494 6 3.494C6.31667 3.494 6.63233 3.52233 6.947 3.579C7.26167 3.63567 7.592 3.71833 7.938 3.827L7.27 1.5H4.732L4.061 3.827ZM4.731 17.5H7.269L7.939 15.173C7.59233 15.2823 7.26167 15.361 6.947 15.409C6.63233 15.457 6.31667 15.4807 6 15.48C5.68333 15.4793 5.36767 15.4553 5.053 15.408C4.73833 15.3607 4.408 15.282 4.062 15.172L4.731 17.5Z" fill="#6B7280"/>
</svg>
